<!DOCTYPE svg PUBLIC "-//W3C//DTD SVG 1.1//EN" "http://www.w3.org/Graphics/SVG/1.1/DTD/svg11.dtd">

<!-- Uploaded to: SVG Repo, www.svgrepo.com, Transformed by: SVG Repo Mixer Tools -->
<svg width="17px" height="17px" viewBox="-2.4 -2.4 28.80 28.80" fill="none" xmlns="http://www.w3.org/2000/svg">

<g id="SVGRepo_bgCarrier" stroke-width="0">

<path transform="translate(-2.4, -2.4), scale(0.8999999999999999)" d="M16,26.752819061279297C20.11341966935722,27.655165917640073,25.070210108346878,28.603121337542824,27.945295162556405,25.52605501448444C30.93052539278727,22.33110556609509,29.726737399219772,17.351938380468482,28.770435463726443,13.085231440283891C27.807496364307895,8.788911642139038,26.60328196264401,4.1253104860691385,22.69450088384184,2.0987256753300016C18.687486939432393,0.02121009375933447,13.553607063286767,0.6690652776160877,9.879629495824025,3.290919693128364C6.714576968572786,5.549590790467911,6.456858166215977,9.903336786374435,6.313024484229702,13.78901105194827C6.207192296558194,16.64807300757417,7.496159262675284,19.12401672143406,9.208708897333429,21.415873930530427C11.021880291731335,23.842390422362023,13.04123320776388,26.103764472084872,16,26.752819061279297" fill="#dddbff" strokewidth="0"/>

</g>

<g id="SVGRepo_tracerCarrier" stroke-linecap="round" stroke-linejoin="round"/>

<g id="SVGRepo_iconCarrier"> <path d="M3 8L10.8906 13.2604C11.5624 13.7083 12.4376 13.7083 13.1094 13.2604L21 8M5 19H19C20.1046 19 21 18.1046 21 17V7C21 5.89543 20.1046 5 19 5H5C3.89543 5 3 5.89543 3 7V17C3 18.1046 3.89543 19 5 19Z" stroke="purple" stroke-width="2" stroke-linecap="round" stroke-linejoin="round"/> </g>

</svg>