<!DOCTYPE svg PUBLIC "-//W3C//DTD SVG 1.1//EN" "http://www.w3.org/Graphics/SVG/1.1/DTD/svg11.dtd">

<!-- Uploaded to: SVG Repo, www.svgrepo.com, Transformed by: SVG Repo Mixer Tools -->
<svg fill="#000000" xmlns="http://www.w3.org/2000/svg" width="10px" height="10px" viewBox="-5.2 -5.2 62.40 62.40" enable-background="new 0 0 52 52" xml:space="preserve" transform="matrix(-1, 0, 0, -1, 0, 0)">

<g id="SVGRepo_bgCarrier" stroke-width="0">

<path transform="translate(-5.2, -5.2), scale(1.95)" d="M16,31.705638542552204C19.15728748638225,31.853410934394677,20.56230122564523,27.656834424805325,23.12346342647352,25.804606271335793C25.693499104353503,23.945960834334205,29.530078131149907,23.687302371379516,30.98460915348403,20.868794654318858C32.493811815633705,17.94434733448698,32.55847300727246,13.916140094176932,30.63771355932678,11.243918556759251C28.75886158474356,8.630000027049125,24.639605136807425,9.518982702228746,21.77330195198064,8.053731571872918C19.584473474952183,6.934804789424123,18.389332921880385,4.339110289564676,16,3.7611350005163864C13.248492418155369,3.095550319799871,10.270997615437382,3.348927657354916,7.76469494266663,4.665075009521523C5.020445697787965,6.106176444145671,1.9188986977973737,8.238481237816007,1.6022624306786266,11.321891482534994C1.2837375327807603,14.42369325121242,4.75370000440075,16.438325187536524,6.276265240986971,19.159432944147863C7.400745017346685,21.169087813495544,7.934362358039063,23.339542008962205,9.345068139211849,25.159727895156394C11.298998713701469,27.680818332123774,12.813857498642042,31.556515632393612,16,31.705638542552204" fill="#dab3f1" strokewidth="0"/>

</g>

<g id="SVGRepo_tracerCarrier" stroke-linecap="round" stroke-linejoin="round"/>

<g id="SVGRepo_iconCarrier"> <g> <path d="M17.6,36.7c0.6,0.6,1.5,0.5,2.1,0l10-10c0.7-0.7,1.9-0.8,2.8,0c0.9,0.8,0.8,2.2,0,3L20.2,41.8 c-2.7,2.7-7.2,2.7-9.9,0l-0.1-0.1c-2.7-2.7-2.7-7.2,0-9.9l21.7-21.7c2.7-2.7,7.2-2.7,9.9,0l0.1,0.1c2.7,2.7,2.7,7.2,0,9.9l-0.1,0.1 c-0.5,0.5-0.6,1.2-0.2,1.8c0.6,1.1,1.1,2.3,1.4,3.5c0.2,0.8,1.1,1,1.7,0.5c0.8-0.8,1.5-1.6,1.5-1.6c5.1-5.1,5.1-13.4,0-18.5L46,5.9 c-5.1-5.1-13.4-5.1-18.5,0L5.8,27.5c-5.1,5.1-5.1,13.4,0,18.5L6,46.2c5.1,5.1,13.3,5.1,18.4,0l12.4-12.3c3.2-3.2,3.1-8.4-0.2-11.6 c-3.2-3.1-8.4-2.9-11.5,0.3l-9.8,9.8c-0.6,0.6-0.6,1.6,0,2.2L17.6,36.7z"/> </g> </g>

</svg>