<svg width="52" height="221" viewBox="0 0 52 221" fill="none" xmlns="http://www.w3.org/2000/svg">
<g id="bottom_half">
<path id="Vector" d="M17.6939 219.461V219.961H18.1939H34H34.5V219.461V168.453V167.953H34H18.1939H17.6939V168.453V219.461ZM20.046 160.611L20.0487 160.614C21.7373 162.208 23.7677 163.008 26.1131 163.008C28.4788 163.008 30.5109 162.209 32.18 160.611L32.1802 160.611C33.8701 158.992 34.7263 157.026 34.7263 154.738C34.7263 152.471 33.8695 150.526 32.1802 148.93C30.512 147.311 28.4799 146.5 26.1131 146.5C23.7661 146.5 21.7353 147.313 20.0473 148.929C18.3571 150.525 17.5 152.47 17.5 154.738C17.5 157.026 18.3561 158.992 20.046 160.611Z" fill="white" stroke="white"/>
<path id="Vector_2" d="M12.4221 123.916L12.4252 123.917C16.2844 126.07 20.8539 127.136 26.1152 127.136C30.4978 127.136 34.3785 126.452 37.7471 125.073L37.7498 125.071C41.1126 123.671 43.8435 121.711 45.927 119.183C48.0318 116.634 49.3915 113.642 50.0092 110.22L50.1124 109.648L49.5321 109.631L35.0189 109.199L34.6573 109.189L34.534 109.529C34.1493 110.59 33.5766 111.474 32.818 112.192C32.0541 112.915 31.1359 113.466 30.0555 113.843C28.974 114.22 27.7594 114.413 26.4061 114.413C24.4526 114.413 22.7984 113.997 21.4235 113.187C20.0422 112.373 18.9763 111.238 18.2211 109.771C17.4742 108.298 17.0886 106.574 17.08 104.587H49.6788H50.1788V104.087V100.035C50.1788 95.805 49.5797 92.0367 48.3706 88.739C47.1646 85.4275 45.4708 82.6313 43.2833 80.3612C41.0982 78.0936 38.5043 76.3818 35.507 75.2271C32.5123 74.0733 29.2181 73.5 25.6303 73.5C20.5557 73.5 16.1219 74.6243 12.3475 76.8917C8.57912 79.1334 5.66003 82.2819 3.59345 86.3247C1.52541 90.3483 0.5 95.0342 0.5 100.368C0.5 105.853 1.51344 110.616 3.56038 114.641L3.5619 114.644C5.63093 118.647 8.58617 121.741 12.4221 123.916ZM17.1268 94.1557C17.2597 92.8005 17.6533 91.5828 18.3021 90.4951L18.3039 90.4921C19.0786 89.1726 20.1251 88.1394 21.4493 87.3859L21.4493 87.3859L21.4544 87.3829C22.7718 86.6125 24.2671 86.2226 25.9536 86.2226C27.6226 86.2226 29.0746 86.5923 30.3249 87.3174L30.3249 87.3175L30.3333 87.3222C31.611 88.0306 32.6117 89.017 33.3422 90.2888C33.9956 91.4262 34.3687 92.7121 34.4538 94.1557H17.1268Z" fill="white" stroke="white"/>
<path id="Vector_3" d="M13.4325 50.7446L13.4336 50.7452C17.2743 53.013 21.859 54.1355 27.1666 54.1355C31.8826 54.1355 35.9828 53.2606 39.4505 51.4906L39.4516 51.49C42.9353 49.7005 45.6462 47.1908 47.5711 43.9634C49.517 40.7371 50.5593 36.9771 50.7127 32.6989L50.7313 32.1809H50.2131H35.4413H34.9925L34.9442 32.6272C34.7562 34.3661 34.3097 35.8224 33.62 37.0111C32.9277 38.1819 32.0517 39.0562 30.9943 39.6506L30.9907 39.6526C29.9556 40.2457 28.7506 40.5495 27.3605 40.5495C25.6314 40.5495 24.134 40.0611 22.8475 39.091C21.5607 38.0988 20.5321 36.6251 19.781 34.633C19.053 32.6228 18.6807 30.1392 18.6807 27.1683C18.6807 24.1961 19.0534 21.7358 19.7804 19.7717C20.5318 17.778 21.5604 16.3163 22.8455 15.3467L22.8455 15.3467L22.8495 15.3436C24.1365 14.352 25.6331 13.8536 27.3605 13.8536C29.5022 13.8536 31.1965 14.55 32.4919 15.9218L32.4946 15.9246C33.8224 17.3094 34.652 19.245 34.9446 21.7795L34.9958 22.2221H35.4413H50.2131H50.7261L50.7129 21.7093C50.6032 17.4496 49.56 13.7184 47.5673 10.5331C45.5984 7.3291 42.8549 4.8539 39.3496 3.10976C35.8626 1.36396 31.7859 0.5 27.1343 0.5C21.8689 0.5 17.3061 1.62287 13.4659 3.8903L13.4648 3.89094C9.6535 6.15436 6.71193 9.31392 4.64459 13.3585L4.64413 13.3594C2.59843 17.382 1.58374 22.045 1.58374 27.3344C1.58374 32.602 2.5986 37.2644 4.64362 41.3083L4.64413 41.3094C6.6902 45.3328 9.62144 48.4813 13.4325 50.7446Z" fill="white" stroke="white"/>
</g>
</svg>
