<svg width="100" height="100" viewBox="0 0 182 175" fill="none" xmlns="http://www.w3.org/2000/svg">
<g id="stroked_logo">
<g id="stroked_sword">
<mask id="path-1-inside-1_33_2" fill="white">
<path d="M169.152 0.270038C168.016 0.711415 167.536 1.5381 166.384 5.09434C165.401 8.10977 164.984 9.07074 163.299 12.0653C160.023 17.9188 153.829 26.7237 147.893 33.9757C145.894 36.4202 142.825 39.9527 142.7 39.9538C142.669 39.9541 142.17 39.864 141.577 39.7479C140.126 39.4639 137.944 39.5773 137.089 39.9623C135.658 40.622 134.993 41.6795 135 43.2435C135.006 44.43 135.322 45.3577 136.186 46.8468L136.924 48.0809L136.242 48.8689C113.437 75.0776 100.258 89.9302 95.62 94.6629C94.8443 95.4517 93.0756 97.1931 91.6791 98.5266C90.2826 99.8737 88.6691 101.479 88.0797 102.091C83.1473 107.244 66.0126 122.778 55.7658 131.376C47.9099 137.97 47.0402 138.639 32.0044 149.732C-2.89776 175.493 0.907579 172.642 1.2198 172.747C1.3135 172.787 1.36064 172.867 1.3142 172.935C1.17494 173.152 1.58174 173.486 1.79919 173.322C1.9235 173.24 2.48471 173.262 3.52978 173.428C6.00982 173.811 9.03498 174.108 9.76713 174.021C10.6084 173.933 11.9454 173.207 15.2242 171.075C18.1455 169.161 24.6704 164.587 24.8562 164.33C24.9181 164.221 25.8968 163.538 26.9999 162.787C49.2656 147.896 70.6638 130.814 90.1231 112.415C105.641 97.7442 124.173 77.8291 142.201 56.4622L144.386 53.8812L145.62 54.3828C148.306 55.4786 151.222 55.6959 152.917 54.926C155.312 53.8399 155.612 51.2754 153.695 48.0695L152.91 46.7415L153.374 46.1037C155.418 43.2543 159.151 38.1789 160.406 36.5229C162.513 33.7674 163.612 32.1667 165.515 29.1703C168.919 23.7876 174.022 15.127 177.576 8.70478C179.802 4.68073 180.173 3.96287 180.171 3.61231C180.167 2.64152 175.841 0.858938 172.051 0.271732C170.506 0.029004 169.789 0.0217709 169.152 0.270038ZM171.571 0.950099C171.602 0.976794 171.181 1.00743 170.636 1.01218C169.981 1.01789 169.514 1.08938 169.312 1.22598C168.954 1.45832 168.721 1.48732 168.876 1.28372C169.092 0.971703 169.949 0.761983 170.728 0.836088C171.165 0.872733 171.539 0.923405 171.571 0.950099ZM175.768 1.9113C176.424 2.13481 177.282 2.46441 177.673 2.64978C178.563 3.07349 178.298 2.9949 176.424 2.31009C175.612 2.00704 174.801 1.71748 174.629 1.65156C173.833 1.36186 174.691 1.55663 175.768 1.9113ZM179.068 4.26914C178.527 5.39299 175.791 10.271 175.729 10.2311C175.698 10.2044 176.161 9.29692 176.748 8.22659C177.335 7.15626 178.123 5.67967 178.51 4.94819C179.236 3.60697 179.639 3.10457 179.068 4.26914ZM175.003 11.7476C174.771 12.1271 174.57 12.439 174.523 12.4394C174.477 12.4398 174.631 12.1014 174.863 11.6948C175.095 11.2883 175.311 10.9763 175.343 11.003C175.374 11.0297 175.22 11.3681 175.003 11.7476ZM162.831 31.8499C162.491 32.4192 161.112 34.265 161.034 34.2657C160.987 34.2661 161.065 34.1306 161.189 33.9542C161.312 33.7778 161.762 33.1672 162.164 32.5973C162.861 31.607 163.218 31.1993 162.831 31.8499ZM139.943 40.3419C139.709 40.3709 139.289 40.3746 139.008 40.3501C138.727 40.3255 138.914 40.2969 139.428 40.2925C139.943 40.288 140.177 40.3129 139.943 40.3419ZM137.669 40.6719C137.311 40.8098 136.829 41.0972 136.628 41.3012C136.364 41.5462 136.27 41.5874 136.332 41.4386C136.455 41.1544 137.746 40.4015 138.088 40.3985C138.229 40.3973 138.042 40.5203 137.669 40.6719ZM141.268 40.4652C141.159 40.4931 140.972 40.4947 140.879 40.4686C140.769 40.4291 140.847 40.4014 141.065 40.3995C141.284 40.3976 141.362 40.4239 141.268 40.4652ZM142.002 40.6341C142.127 40.7004 142.174 40.7674 142.08 40.7682C142.002 40.7689 141.815 40.7031 141.69 40.6368C141.565 40.5705 141.534 40.5033 141.611 40.5026C141.705 40.5018 141.877 40.5678 142.002 40.6341ZM136.132 41.9662C136.086 42.088 136.008 42.156 135.977 42.1159C135.93 42.0758 135.945 41.9948 136.007 41.9134C136.146 41.6964 136.24 41.736 136.132 41.9662ZM145.906 42.1642C145.906 42.1911 145.765 42.1654 145.593 42.086C145.422 42.0066 145.281 41.9134 145.281 41.873C145.281 41.846 145.421 41.8717 145.593 41.9511C145.765 42.0305 145.905 42.1237 145.906 42.1642ZM148.125 43.5201C148.235 43.627 147.813 43.4015 147.203 43.0158C146.578 42.6302 146.062 42.2976 146.062 42.2572C146.061 42.1628 147.906 43.2928 148.125 43.5201ZM135.89 43.4785C135.859 43.6945 135.828 43.5464 135.826 43.1824C135.824 42.8049 135.855 42.6428 135.886 42.8043C135.918 42.9793 135.92 43.276 135.89 43.4785ZM149.736 44.7466C150.425 45.3339 150.941 45.8148 150.91 45.815C150.864 45.8155 150.269 45.3352 149.58 44.7479C148.892 44.1607 148.375 43.6798 148.406 43.6795C148.453 43.6791 149.048 44.1593 149.736 44.7466ZM136.175 44.5547C136.239 44.8373 136.554 45.5627 136.884 46.1665C137.214 46.7839 137.466 47.2806 137.419 47.281C137.373 47.2814 137.09 46.8389 136.791 46.2887C136.225 45.2824 135.704 43.8711 135.939 43.9904C136.001 44.0303 136.112 44.2856 136.175 44.5547ZM152.313 45.8028C152.438 45.8691 152.485 45.9631 152.423 46.0176C152.361 46.0721 152.189 46.0196 152.049 45.8995C151.767 45.6593 151.922 45.5905 152.313 45.8028ZM151.302 46.2161C151.458 46.3631 151.552 46.4836 151.506 46.484C151.459 46.4844 151.303 46.3645 151.146 46.2175C150.989 46.0705 150.895 45.95 150.942 45.9496C150.989 45.9492 151.145 46.0692 151.302 46.2161ZM140.552 47.2267C140.505 47.2676 140.38 47.2282 140.271 47.1348C140.13 47.0012 140.146 46.9876 140.364 47.0666C140.52 47.1057 140.598 47.1859 140.552 47.2267ZM152.321 47.4343C152.556 47.8098 152.4 47.7437 152.086 47.3419C151.945 47.1409 151.898 47.0334 151.992 47.0731C152.085 47.1262 152.242 47.2866 152.321 47.4343ZM140.009 47.8517C140.914 48.0865 141.789 48.443 142.617 48.8942C142.992 49.0932 143.336 49.252 143.398 49.2514C143.554 49.2636 144.79 50.1832 144.649 50.1844C144.587 50.1849 144.04 49.9065 143.415 49.5614C141.962 48.7786 139.76 47.8809 139.558 47.9905C139.247 48.1685 137.479 50.1525 130.968 57.6927C127.325 61.8909 122.845 67.0268 120.984 69.106C89.4469 104.479 56.7445 134.024 19.509 160.776C17.3808 162.305 13.637 164.98 11.198 166.7C6.24234 170.209 4.19259 171.845 4.45868 172.085C4.66212 172.259 6.20619 172.475 7.21926 172.466C7.6245 172.462 7.95205 172.513 7.95243 172.594C7.95274 172.662 7.75044 172.731 7.50107 172.733C6.95557 172.738 3.38459 172.378 3.30634 172.311C3.21239 172.217 6.28796 169.966 11.8185 166.075C22.8641 158.306 32.9292 150.83 41.7961 143.795C75.6179 116.977 104.477 88.7877 134.889 52.8449C137.292 49.9923 139.276 47.6693 139.291 47.6692C139.291 47.6692 139.619 47.7473 140.009 47.8517ZM153.216 48.8288C153.514 49.3925 153.75 49.8624 153.719 49.9031C153.688 49.9303 153.39 49.4745 153.076 48.8839C152.761 48.3069 152.541 47.8234 152.572 47.8231C152.619 47.8227 152.901 48.2787 153.216 48.8288ZM143.91 48.6537C143.91 48.6807 143.769 48.6549 143.598 48.5755C143.426 48.4961 143.285 48.403 143.285 48.3625C143.285 48.3355 143.425 48.3613 143.597 48.4407C143.769 48.5201 143.909 48.6133 143.91 48.6537ZM146.427 50.3981C146.631 50.6121 146.615 50.6257 146.381 50.4525C146.224 50.3594 146.099 50.2527 146.099 50.2257C146.099 50.1178 146.224 50.1842 146.427 50.3981ZM153.846 50.4009C153.8 50.5091 153.753 50.4691 153.753 50.3208C153.736 50.1726 153.783 50.0913 153.83 50.1448C153.877 50.1849 153.893 50.3061 153.846 50.4009ZM147.037 50.8512C147.038 50.9321 146.975 50.9462 146.882 50.9065C146.804 50.8668 146.725 50.7596 146.725 50.6922C146.724 50.6113 146.802 50.5971 146.88 50.6369C146.974 50.6765 147.037 50.7838 147.037 50.8512ZM145.603 50.8772C145.713 51.0111 144.908 52.0564 142.582 54.7869C115.905 86.1936 96.144 106.713 74.3491 125.632C55.6123 141.881 37.0821 155.634 14.0364 170.384C10.8506 172.407 10.0421 172.832 9.21614 172.853C8.79532 172.856 9.37011 172.447 10.024 172.279C11.5339 171.875 18.3402 167.474 30.2563 159.199C41.8306 151.17 49.2555 145.739 56.3524 140.162C84.2273 118.197 106.6 96.2257 136.798 61.1072C142.115 54.9392 144.208 52.3726 144.795 51.3562C145.182 50.6921 145.337 50.6099 145.603 50.8772ZM146.418 51.6926C146.418 51.7196 146.263 51.8558 146.076 52.0057L145.719 52.265L146.014 51.9523C146.293 51.6668 146.417 51.5848 146.418 51.6926ZM153.905 52.8948C153.734 53.1255 153.734 53.1255 153.811 52.8956C153.857 52.7604 153.903 52.5712 153.919 52.4902C153.918 52.3689 153.949 52.3686 153.996 52.4895C154.044 52.5835 153.998 52.7592 153.905 52.8948ZM145.24 53.0782C145.178 53.1866 145.069 53.282 144.991 53.2827C144.898 53.2835 144.913 53.2024 145.021 53.0801C145.13 52.9713 145.239 52.876 145.27 52.8757C145.301 52.8754 145.286 52.97 145.24 53.0782ZM153.348 53.7626C153.193 53.9123 152.913 54.1035 152.742 54.1859C152.571 54.2683 152.679 54.1325 152.974 53.9142C153.611 53.4233 153.767 53.3545 153.348 53.7626ZM152.198 54.4334C152.073 54.5019 151.855 54.5577 151.731 54.5588C151.575 54.5601 151.606 54.5194 151.808 54.4368C152.228 54.2713 152.477 54.2691 152.198 54.4334ZM150.921 54.6737C150.671 54.7029 150.297 54.7061 150.063 54.6812C149.814 54.6564 150.016 54.6277 150.484 54.6236C150.952 54.6195 151.154 54.6447 150.921 54.6737ZM129.055 58.5049C124.559 63.6814 121.536 67.1056 121.442 67.1064C121.396 67.1068 121.458 66.9984 121.582 66.8625C121.706 66.7401 123.845 64.2944 126.341 61.4276C128.837 58.5742 130.915 56.2369 130.946 56.2367C130.993 56.2363 130.14 57.255 129.055 58.5049ZM121.397 67.2821C121.397 67.3091 121.241 67.4453 121.055 67.5952L120.698 67.8545L120.992 67.5418C121.272 67.2562 121.396 67.1743 121.397 67.2821ZM120.776 67.9752C120.776 68.0022 120.652 68.1111 120.512 68.2067C120.264 68.3842 120.248 68.3708 120.45 68.1533C120.651 67.9358 120.776 67.8673 120.776 67.9752Z"/>
</mask>
<path d="M169.152 0.270038C168.016 0.711415 167.536 1.5381 166.384 5.09434C165.401 8.10977 164.984 9.07074 163.299 12.0653C160.023 17.9188 153.829 26.7237 147.893 33.9757C145.894 36.4202 142.825 39.9527 142.7 39.9538C142.669 39.9541 142.17 39.864 141.577 39.7479C140.126 39.4639 137.944 39.5773 137.089 39.9623C135.658 40.622 134.993 41.6795 135 43.2435C135.006 44.43 135.322 45.3577 136.186 46.8468L136.924 48.0809L136.242 48.8689C113.437 75.0776 100.258 89.9302 95.62 94.6629C94.8443 95.4517 93.0756 97.1931 91.6791 98.5266C90.2826 99.8737 88.6691 101.479 88.0797 102.091C83.1473 107.244 66.0126 122.778 55.7658 131.376C47.9099 137.97 47.0402 138.639 32.0044 149.732C-2.89776 175.493 0.907579 172.642 1.2198 172.747C1.3135 172.787 1.36064 172.867 1.3142 172.935C1.17494 173.152 1.58174 173.486 1.79919 173.322C1.9235 173.24 2.48471 173.262 3.52978 173.428C6.00982 173.811 9.03498 174.108 9.76713 174.021C10.6084 173.933 11.9454 173.207 15.2242 171.075C18.1455 169.161 24.6704 164.587 24.8562 164.33C24.9181 164.221 25.8968 163.538 26.9999 162.787C49.2656 147.896 70.6638 130.814 90.1231 112.415C105.641 97.7442 124.173 77.8291 142.201 56.4622L144.386 53.8812L145.62 54.3828C148.306 55.4786 151.222 55.6959 152.917 54.926C155.312 53.8399 155.612 51.2754 153.695 48.0695L152.91 46.7415L153.374 46.1037C155.418 43.2543 159.151 38.1789 160.406 36.5229C162.513 33.7674 163.612 32.1667 165.515 29.1703C168.919 23.7876 174.022 15.127 177.576 8.70478C179.802 4.68073 180.173 3.96287 180.171 3.61231C180.167 2.64152 175.841 0.858938 172.051 0.271732C170.506 0.029004 169.789 0.0217709 169.152 0.270038ZM171.571 0.950099C171.602 0.976794 171.181 1.00743 170.636 1.01218C169.981 1.01789 169.514 1.08938 169.312 1.22598C168.954 1.45832 168.721 1.48732 168.876 1.28372C169.092 0.971703 169.949 0.761983 170.728 0.836088C171.165 0.872733 171.539 0.923405 171.571 0.950099ZM175.768 1.9113C176.424 2.13481 177.282 2.46441 177.673 2.64978C178.563 3.07349 178.298 2.9949 176.424 2.31009C175.612 2.00704 174.801 1.71748 174.629 1.65156C173.833 1.36186 174.691 1.55663 175.768 1.9113ZM179.068 4.26914C178.527 5.39299 175.791 10.271 175.729 10.2311C175.698 10.2044 176.161 9.29692 176.748 8.22659C177.335 7.15626 178.123 5.67967 178.51 4.94819C179.236 3.60697 179.639 3.10457 179.068 4.26914ZM175.003 11.7476C174.771 12.1271 174.57 12.439 174.523 12.4394C174.477 12.4398 174.631 12.1014 174.863 11.6948C175.095 11.2883 175.311 10.9763 175.343 11.003C175.374 11.0297 175.22 11.3681 175.003 11.7476ZM162.831 31.8499C162.491 32.4192 161.112 34.265 161.034 34.2657C160.987 34.2661 161.065 34.1306 161.189 33.9542C161.312 33.7778 161.762 33.1672 162.164 32.5973C162.861 31.607 163.218 31.1993 162.831 31.8499ZM139.943 40.3419C139.709 40.3709 139.289 40.3746 139.008 40.3501C138.727 40.3255 138.914 40.2969 139.428 40.2925C139.943 40.288 140.177 40.3129 139.943 40.3419ZM137.669 40.6719C137.311 40.8098 136.829 41.0972 136.628 41.3012C136.364 41.5462 136.27 41.5874 136.332 41.4386C136.455 41.1544 137.746 40.4015 138.088 40.3985C138.229 40.3973 138.042 40.5203 137.669 40.6719ZM141.268 40.4652C141.159 40.4931 140.972 40.4947 140.879 40.4686C140.769 40.4291 140.847 40.4014 141.065 40.3995C141.284 40.3976 141.362 40.4239 141.268 40.4652ZM142.002 40.6341C142.127 40.7004 142.174 40.7674 142.08 40.7682C142.002 40.7689 141.815 40.7031 141.69 40.6368C141.565 40.5705 141.534 40.5033 141.611 40.5026C141.705 40.5018 141.877 40.5678 142.002 40.6341ZM136.132 41.9662C136.086 42.088 136.008 42.156 135.977 42.1159C135.93 42.0758 135.945 41.9948 136.007 41.9134C136.146 41.6964 136.24 41.736 136.132 41.9662ZM145.906 42.1642C145.906 42.1911 145.765 42.1654 145.593 42.086C145.422 42.0066 145.281 41.9134 145.281 41.873C145.281 41.846 145.421 41.8717 145.593 41.9511C145.765 42.0305 145.905 42.1237 145.906 42.1642ZM148.125 43.5201C148.235 43.627 147.813 43.4015 147.203 43.0158C146.578 42.6302 146.062 42.2976 146.062 42.2572C146.061 42.1628 147.906 43.2928 148.125 43.5201ZM135.89 43.4785C135.859 43.6945 135.828 43.5464 135.826 43.1824C135.824 42.8049 135.855 42.6428 135.886 42.8043C135.918 42.9793 135.92 43.276 135.89 43.4785ZM149.736 44.7466C150.425 45.3339 150.941 45.8148 150.91 45.815C150.864 45.8155 150.269 45.3352 149.58 44.7479C148.892 44.1607 148.375 43.6798 148.406 43.6795C148.453 43.6791 149.048 44.1593 149.736 44.7466ZM136.175 44.5547C136.239 44.8373 136.554 45.5627 136.884 46.1665C137.214 46.7839 137.466 47.2806 137.419 47.281C137.373 47.2814 137.09 46.8389 136.791 46.2887C136.225 45.2824 135.704 43.8711 135.939 43.9904C136.001 44.0303 136.112 44.2856 136.175 44.5547ZM152.313 45.8028C152.438 45.8691 152.485 45.9631 152.423 46.0176C152.361 46.0721 152.189 46.0196 152.049 45.8995C151.767 45.6593 151.922 45.5905 152.313 45.8028ZM151.302 46.2161C151.458 46.3631 151.552 46.4836 151.506 46.484C151.459 46.4844 151.303 46.3645 151.146 46.2175C150.989 46.0705 150.895 45.95 150.942 45.9496C150.989 45.9492 151.145 46.0692 151.302 46.2161ZM140.552 47.2267C140.505 47.2676 140.38 47.2282 140.271 47.1348C140.13 47.0012 140.146 46.9876 140.364 47.0666C140.52 47.1057 140.598 47.1859 140.552 47.2267ZM152.321 47.4343C152.556 47.8098 152.4 47.7437 152.086 47.3419C151.945 47.1409 151.898 47.0334 151.992 47.0731C152.085 47.1262 152.242 47.2866 152.321 47.4343ZM140.009 47.8517C140.914 48.0865 141.789 48.443 142.617 48.8942C142.992 49.0932 143.336 49.252 143.398 49.2514C143.554 49.2636 144.79 50.1832 144.649 50.1844C144.587 50.1849 144.04 49.9065 143.415 49.5614C141.962 48.7786 139.76 47.8809 139.558 47.9905C139.247 48.1685 137.479 50.1525 130.968 57.6927C127.325 61.8909 122.845 67.0268 120.984 69.106C89.4469 104.479 56.7445 134.024 19.509 160.776C17.3808 162.305 13.637 164.98 11.198 166.7C6.24234 170.209 4.19259 171.845 4.45868 172.085C4.66212 172.259 6.20619 172.475 7.21926 172.466C7.6245 172.462 7.95205 172.513 7.95243 172.594C7.95274 172.662 7.75044 172.731 7.50107 172.733C6.95557 172.738 3.38459 172.378 3.30634 172.311C3.21239 172.217 6.28796 169.966 11.8185 166.075C22.8641 158.306 32.9292 150.83 41.7961 143.795C75.6179 116.977 104.477 88.7877 134.889 52.8449C137.292 49.9923 139.276 47.6693 139.291 47.6692C139.291 47.6692 139.619 47.7473 140.009 47.8517ZM153.216 48.8288C153.514 49.3925 153.75 49.8624 153.719 49.9031C153.688 49.9303 153.39 49.4745 153.076 48.8839C152.761 48.3069 152.541 47.8234 152.572 47.8231C152.619 47.8227 152.901 48.2787 153.216 48.8288ZM143.91 48.6537C143.91 48.6807 143.769 48.6549 143.598 48.5755C143.426 48.4961 143.285 48.403 143.285 48.3625C143.285 48.3355 143.425 48.3613 143.597 48.4407C143.769 48.5201 143.909 48.6133 143.91 48.6537ZM146.427 50.3981C146.631 50.6121 146.615 50.6257 146.381 50.4525C146.224 50.3594 146.099 50.2527 146.099 50.2257C146.099 50.1178 146.224 50.1842 146.427 50.3981ZM153.846 50.4009C153.8 50.5091 153.753 50.4691 153.753 50.3208C153.736 50.1726 153.783 50.0913 153.83 50.1448C153.877 50.1849 153.893 50.3061 153.846 50.4009ZM147.037 50.8512C147.038 50.9321 146.975 50.9462 146.882 50.9065C146.804 50.8668 146.725 50.7596 146.725 50.6922C146.724 50.6113 146.802 50.5971 146.88 50.6369C146.974 50.6765 147.037 50.7838 147.037 50.8512ZM145.603 50.8772C145.713 51.0111 144.908 52.0564 142.582 54.7869C115.905 86.1936 96.144 106.713 74.3491 125.632C55.6123 141.881 37.0821 155.634 14.0364 170.384C10.8506 172.407 10.0421 172.832 9.21614 172.853C8.79532 172.856 9.37011 172.447 10.024 172.279C11.5339 171.875 18.3402 167.474 30.2563 159.199C41.8306 151.17 49.2555 145.739 56.3524 140.162C84.2273 118.197 106.6 96.2257 136.798 61.1072C142.115 54.9392 144.208 52.3726 144.795 51.3562C145.182 50.6921 145.337 50.6099 145.603 50.8772ZM146.418 51.6926C146.418 51.7196 146.263 51.8558 146.076 52.0057L145.719 52.265L146.014 51.9523C146.293 51.6668 146.417 51.5848 146.418 51.6926ZM153.905 52.8948C153.734 53.1255 153.734 53.1255 153.811 52.8956C153.857 52.7604 153.903 52.5712 153.919 52.4902C153.918 52.3689 153.949 52.3686 153.996 52.4895C154.044 52.5835 153.998 52.7592 153.905 52.8948ZM145.24 53.0782C145.178 53.1866 145.069 53.282 144.991 53.2827C144.898 53.2835 144.913 53.2024 145.021 53.0801C145.13 52.9713 145.239 52.876 145.27 52.8757C145.301 52.8754 145.286 52.97 145.24 53.0782ZM153.348 53.7626C153.193 53.9123 152.913 54.1035 152.742 54.1859C152.571 54.2683 152.679 54.1325 152.974 53.9142C153.611 53.4233 153.767 53.3545 153.348 53.7626ZM152.198 54.4334C152.073 54.5019 151.855 54.5577 151.731 54.5588C151.575 54.5601 151.606 54.5194 151.808 54.4368C152.228 54.2713 152.477 54.2691 152.198 54.4334ZM150.921 54.6737C150.671 54.7029 150.297 54.7061 150.063 54.6812C149.814 54.6564 150.016 54.6277 150.484 54.6236C150.952 54.6195 151.154 54.6447 150.921 54.6737ZM129.055 58.5049C124.559 63.6814 121.536 67.1056 121.442 67.1064C121.396 67.1068 121.458 66.9984 121.582 66.8625C121.706 66.7401 123.845 64.2944 126.341 61.4276C128.837 58.5742 130.915 56.2369 130.946 56.2367C130.993 56.2363 130.14 57.255 129.055 58.5049ZM121.397 67.2821C121.397 67.3091 121.241 67.4453 121.055 67.5952L120.698 67.8545L120.992 67.5418C121.272 67.2562 121.396 67.1743 121.397 67.2821ZM120.776 67.9752C120.776 68.0022 120.652 68.1111 120.512 68.2067C120.264 68.3842 120.248 68.3708 120.45 68.1533C120.651 67.9358 120.776 67.8673 120.776 67.9752Z" stroke="white" stroke-width="2" mask="url(#path-1-inside-1_33_2)"/>
</g>
<path id="stroke_symbol" d="M70.3784 74.0002L70.9561 72.9058L70.2382 71.9032C66.5573 66.763 64.9044 62.4268 64.8876 58.8334C64.8709 55.285 66.2934 52.111 69.3794 49.2402C72.5999 46.2443 76.4272 44.7316 80.968 44.6919C85.5079 44.6522 89.2524 46.097 92.3302 49.0092L92.3623 49.0396L92.3957 49.0685C95.6269 51.8644 97.1639 55.1383 97.182 58.9835C97.1995 62.7058 95.1833 67.0057 90.498 71.924L88.8473 73.6568L90.8365 74.9707C103.662 83.4424 113.434 91.7386 120.222 99.8429L120.227 99.8494L120.233 99.8559C126.872 107.646 130.212 116.745 130.261 127.239C130.309 137.405 126.176 146.127 117.661 153.499C109.222 160.66 97.0378 164.451 80.8242 164.593C73.5587 164.656 66.1818 163.264 58.6823 160.387C52.1554 157.828 47.1309 154.751 43.5122 151.208L46.2998 148.502C53.1719 153.079 60.5929 155.363 68.5255 155.294C76.864 155.221 83.8398 153.131 89.2804 148.856L89.2847 148.852C95.0637 144.286 97.7796 137.398 97.7383 128.605C97.6734 114.786 92.0379 100.587 81.1193 86.0429L79.3933 83.7437L77.8358 86.1732L44.5871 138.037L34.464 146.319C39.5046 137.279 45.2935 125.662 50.8323 114.244C53.5775 108.585 56.2627 102.972 58.774 97.722C63.5186 87.8037 67.6425 79.183 70.3784 74.0002Z" stroke="white" stroke-width="4"/>
</g>
</svg>
