<svg width="99" height="99" viewBox="0 0 99 99" fill="none" xmlns="http://www.w3.org/2000/svg">
<path d="M92.0452 0.140355C91.43 0.388662 91.1709 0.855549 90.5492 2.86502C90.0186 4.5689 89.7937 5.11178 88.8829 6.80309C87.1116 10.1091 83.7619 15.0807 80.5507 19.1745C79.4691 20.5544 77.8083 22.5484 77.7407 22.5489C77.7238 22.549 77.4532 22.4975 77.1318 22.4312C76.3452 22.269 75.1629 22.3307 74.6996 22.5475C73.9246 22.9189 73.5649 23.5161 73.5701 24.4004C73.5741 25.0713 73.7461 25.5961 74.2157 26.4391L74.6169 27.1376L74.2478 27.5824C61.9089 42.376 54.778 50.7593 52.268 53.4301C51.8483 53.8753 50.8911 54.8579 50.1352 55.6104C49.3794 56.3705 48.5063 57.2762 48.1873 57.6216C45.5182 60.5299 36.2439 69.2942 30.6972 74.144C26.4447 77.864 25.9739 78.2409 17.8337 84.4966C-1.06199 99.0239 0.998147 97.416 1.16745 97.4758C1.21827 97.4983 1.24388 97.5438 1.21876 97.5821C1.14346 97.7047 1.36421 97.8937 1.48192 97.8014C1.54923 97.7552 1.85342 97.7683 2.41996 97.8634C3.76439 98.0826 5.40421 98.254 5.80095 98.2055C6.25682 98.1565 6.98089 97.7473 8.75621 96.5455C10.338 95.4669 13.8707 92.888 13.9712 92.7424C14.0046 92.6812 14.5345 92.2963 15.1318 91.8727C27.1874 83.4776 38.7712 73.8431 49.303 63.4612C57.7016 55.1834 67.73 43.9436 77.4832 31.8823L78.6657 30.4254L79.3347 30.7104C80.7914 31.3329 82.3718 31.459 83.29 31.0256C84.5873 30.4141 84.7477 28.9645 83.7064 27.1497L83.2796 26.3979L83.5309 26.0378C84.6365 24.429 86.6554 21.5634 87.3341 20.6285C88.4738 19.0728 89.0682 18.169 90.0973 16.4769C91.9378 13.4372 94.6966 8.54604 96.6181 4.91875C97.8211 2.64596 98.0215 2.24048 98.0203 2.04227C98.017 1.49337 95.6711 0.480705 93.6164 0.144511C92.7793 0.00556589 92.3907 0.000685286 92.0452 0.140355ZM93.3568 0.527538C93.3738 0.542666 93.1458 0.559523 92.8502 0.56161C92.4954 0.564115 92.2422 0.604021 92.1328 0.681032C91.9393 0.812005 91.8127 0.828146 91.8965 0.713196C92.0137 0.537019 92.4776 0.419386 92.9003 0.462146C93.1369 0.483347 93.3398 0.51241 93.3568 0.527538ZM95.6324 1.07564C95.9879 1.20274 96.4537 1.39005 96.6655 1.49529C97.1484 1.73584 97.0045 1.69112 95.9885 1.30185C95.5483 1.1296 95.108 0.964986 95.0149 0.927524C94.5831 0.762846 95.0483 0.87392 95.6324 1.07564ZM97.4227 2.41243C97.1308 3.04728 95.6518 5.80232 95.6179 5.77969C95.6009 5.76456 95.8513 5.25199 96.1688 4.64746C96.4862 4.04294 96.9121 3.20892 97.1209 2.79576C97.5134 2.03822 97.7314 1.7546 97.4227 2.41243ZM95.2259 6.63633C95.1005 6.85069 94.9917 7.02681 94.9664 7.02698C94.941 7.02716 95.0244 6.83598 95.1497 6.60638C95.2751 6.37677 95.3923 6.2006 95.4093 6.21572C95.4263 6.23085 95.3429 6.42204 95.2259 6.63633ZM88.6448 17.989C88.4608 18.3105 87.7152 19.3526 87.6729 19.3529C87.6476 19.3531 87.6894 19.2766 87.7564 19.177C87.8234 19.0774 88.0663 18.7326 88.284 18.4109C88.6609 17.8517 88.8538 17.6216 88.6448 17.989ZM76.2468 22.7652C76.1202 22.7814 75.8921 22.783 75.74 22.7688C75.5878 22.7547 75.6891 22.7387 75.9679 22.7367C76.2466 22.7348 76.3734 22.7491 76.2468 22.7652ZM75.0145 22.9493C74.8207 23.0269 74.5598 23.1888 74.4507 23.304C74.3079 23.4422 74.2573 23.4654 74.2906 23.3813C74.3572 23.2208 75.0559 22.7965 75.2417 22.7952C75.3177 22.7947 75.2168 22.864 75.0145 22.9493ZM76.9652 22.8364C76.9062 22.8521 76.8048 22.8528 76.7541 22.8379C76.6948 22.8155 76.7369 22.7999 76.8552 22.7991C76.9735 22.7982 77.0158 22.8132 76.9652 22.8364ZM77.3628 22.9327C77.4306 22.9704 77.4562 23.0083 77.4055 23.0087C77.3633 23.009 77.2617 22.9716 77.1939 22.9339C77.1261 22.8963 77.109 22.8583 77.1512 22.858C77.2019 22.8576 77.295 22.8951 77.3628 22.9327ZM74.1826 23.6794C74.1576 23.7482 74.1156 23.7866 74.0986 23.7639C74.0731 23.7412 74.0813 23.6954 74.1148 23.6494C74.1901 23.5269 74.2409 23.5494 74.1826 23.6794ZM79.4798 23.8021C79.4799 23.8174 79.4038 23.8027 79.3106 23.7576C79.2174 23.7125 79.1411 23.6597 79.141 23.6368C79.1409 23.6216 79.217 23.6363 79.3102 23.6814C79.4034 23.7264 79.4797 23.7793 79.4798 23.8021ZM80.6839 24.5713C80.7434 24.6319 80.5146 24.5039 80.1838 24.2851C79.8446 24.0664 79.5647 23.8778 79.5646 23.8549C79.5643 23.8016 80.5649 24.4425 80.6839 24.5713ZM74.0524 24.5342C74.0363 24.6563 74.0189 24.5726 74.0177 24.3668C74.0164 24.1533 74.0328 24.0617 74.0502 24.1531C74.0677 24.252 74.0687 24.4198 74.0524 24.5342ZM81.5581 25.2665C81.9317 25.5993 82.2121 25.8718 82.1952 25.8719C82.1699 25.8721 81.8473 25.5999 81.4736 25.2671C81.1 24.9343 80.8196 24.6618 80.8365 24.6617C80.8618 24.6615 81.1844 24.9337 81.5581 25.2665ZM74.2081 25.143C74.2428 25.3029 74.4142 25.7134 74.5936 26.0552C74.7731 26.4046 74.9099 26.6857 74.8845 26.6859C74.8592 26.6861 74.7057 26.4356 74.5433 26.1242C74.2359 25.5545 73.9524 24.756 74.0795 24.8238C74.1134 24.8464 74.1734 24.9908 74.2081 25.143ZM82.9555 25.8666C83.0233 25.9042 83.0489 25.9574 83.0153 25.9881C82.9817 26.0189 82.8886 25.989 82.8122 25.9209C82.6593 25.7848 82.7436 25.7461 82.9555 25.8666ZM82.4077 26.0991C82.4927 26.1824 82.5438 26.2507 82.5185 26.2508C82.4931 26.251 82.4082 26.183 82.3233 26.0997C82.2383 26.0165 82.1872 25.9482 82.2126 25.948C82.2379 25.9479 82.3228 26.0159 82.4077 26.0991ZM76.5823 26.6587C76.5571 26.6817 76.4894 26.6593 76.4299 26.6064C76.3535 26.5307 76.3619 26.523 76.4804 26.5679C76.565 26.5902 76.6075 26.6356 76.5823 26.6587ZM82.9609 26.789C83.0889 27.0016 83.0042 26.9641 82.8339 26.7365C82.7572 26.6227 82.7315 26.5619 82.7823 26.5844C82.8332 26.6146 82.9182 26.7055 82.9609 26.789ZM76.2887 27.0115C76.7795 27.1452 77.2537 27.3477 77.7029 27.6038C77.9064 27.7167 78.0927 27.8069 78.1265 27.8066C78.211 27.8136 78.8815 28.335 78.8054 28.3355C78.7716 28.3357 78.4751 28.1777 78.136 27.9819C77.3478 27.5377 76.1537 27.0277 76.0442 27.0894C75.8759 27.1897 74.9195 28.3096 71.3966 32.5657C69.4255 34.9354 67.0013 37.8343 65.9945 39.0079C48.9302 58.9734 31.2298 75.6422 11.0703 90.7273C9.91806 91.5893 7.89112 93.0979 6.5706 94.0679C3.88754 96.0461 2.77792 96.9689 2.92233 97.1051C3.03273 97.2034 3.86975 97.3271 4.41881 97.3232C4.63844 97.3217 4.81601 97.3509 4.81628 97.3966C4.8165 97.4348 4.70691 97.4737 4.57176 97.4746C4.27611 97.4767 2.34042 97.2693 2.29796 97.2315C2.24697 97.1784 3.91207 95.9087 6.90641 93.7148C12.8867 89.3346 18.3358 85.1182 23.1358 81.1504C41.4451 66.025 57.0635 50.118 73.5177 29.829C74.8176 28.2188 75.8911 26.9075 75.8995 26.9075C75.8995 26.9075 76.0772 26.952 76.2887 27.0115ZM83.4471 27.5785C83.6094 27.8975 83.7377 28.1635 83.721 28.1864C83.7042 28.2018 83.5421 27.9437 83.3712 27.6095C83.2003 27.2829 83.0805 27.0093 83.0974 27.0091C83.1227 27.009 83.2763 27.2671 83.4471 27.5785ZM78.4033 27.4692C78.4034 27.4845 78.3273 27.4698 78.2341 27.4247C78.1409 27.3796 78.0646 27.3268 78.0644 27.3039C78.0643 27.2886 78.1404 27.3033 78.2336 27.3484C78.3268 27.3935 78.4032 27.4463 78.4033 27.4692ZM79.7692 28.4583C79.8797 28.5795 79.8713 28.5872 79.744 28.489C79.6592 28.4362 79.5913 28.3757 79.5912 28.3605C79.5908 28.2995 79.6586 28.3371 79.7692 28.4583ZM83.7902 28.468C83.7652 28.5292 83.7397 28.5065 83.7392 28.4227C83.7303 28.3389 83.7554 28.2929 83.7809 28.3233C83.8064 28.3459 83.8152 28.4145 83.7902 28.468ZM80.1001 28.7152C80.1004 28.7609 80.0667 28.7688 80.0158 28.7463C79.9735 28.7237 79.9309 28.663 79.9306 28.6249C79.9304 28.5791 79.9726 28.5712 80.0149 28.5938C80.0658 28.6163 80.0999 28.6771 80.1001 28.7152ZM79.323 28.7283C79.3826 28.8041 78.9468 29.3942 77.6888 30.9355C63.2554 48.6638 52.5616 60.2438 40.7644 70.9167C30.6224 80.0836 20.5904 87.8393 8.11189 96.1536C6.38689 97.2941 5.94904 97.5335 5.50139 97.5443C5.27332 97.5459 5.58451 97.315 5.93875 97.221C6.75681 96.9941 10.4422 94.5132 16.8938 89.8476C23.1604 85.3205 27.1803 82.2578 31.0222 79.1125C46.1122 66.7239 58.2203 54.3258 74.559 34.5027C77.4359 31.0212 78.5678 29.5723 78.8854 28.9982C79.0943 28.6232 79.1785 28.5768 79.323 28.7283ZM79.765 29.1902C79.7651 29.2055 79.6811 29.2823 79.5802 29.3669L79.3868 29.5131L79.5463 29.3366C79.6974 29.1755 79.7647 29.1292 79.765 29.1902ZM83.8239 29.8782C83.7317 30.0085 83.7317 30.0085 83.7732 29.8786C83.7981 29.8022 83.8228 29.6953 83.831 29.6495C83.8306 29.5808 83.8475 29.5807 83.8732 29.6492C83.8989 29.7023 83.8741 29.8016 83.8239 29.8782ZM79.1276 29.9724C79.0942 30.0336 79.0354 30.0874 78.9932 30.0877C78.9425 30.088 78.9507 30.0422 79.0094 29.9732C79.0682 29.9118 79.127 29.858 79.1439 29.8579C79.1608 29.8578 79.1526 29.9112 79.1276 29.9724ZM83.5226 30.3683C83.4387 30.4527 83.2873 30.5605 83.1946 30.6069C83.102 30.6533 83.1606 30.5767 83.3204 30.4536C83.6651 30.1767 83.7494 30.138 83.5226 30.3683ZM82.8998 30.7462C82.8324 30.7848 82.7143 30.8162 82.6468 30.8166C82.5623 30.8172 82.579 30.7943 82.6886 30.7477C82.9161 30.6546 83.0513 30.6537 82.8998 30.7462ZM82.2079 30.8807C82.0728 30.8969 81.8701 30.8984 81.7433 30.884C81.608 30.8697 81.7178 30.8537 81.9712 30.8519C82.2246 30.8501 82.3345 30.8646 82.2079 30.8807ZM70.3603 33.0228C67.9278 35.9447 66.2919 37.8775 66.2413 37.8778C66.2159 37.878 66.2493 37.8168 66.3165 37.7401C66.3836 37.671 67.5412 36.2905 68.8917 34.6723C70.2423 33.0618 71.3664 31.7425 71.3833 31.7424C71.4087 31.7422 70.9475 32.3173 70.3603 33.0228ZM66.2165 37.9771C66.2166 37.9924 66.1326 38.0692 66.0317 38.1538L65.8383 38.3L65.9977 38.1235C66.1488 37.9623 66.2161 37.9161 66.2165 37.9771ZM65.8809 38.3683C65.881 38.3835 65.8138 38.445 65.7381 38.4989C65.6035 38.599 65.595 38.5914 65.7041 38.4687C65.8132 38.3459 65.8805 38.3073 65.8809 38.3683Z" fill="#312739"/>
<path d="M37.6022 41.1906C35.5409 38.19 34.5033 35.5081 34.4893 33.1449C34.4752 30.7817 35.3994 28.6971 37.2618 26.891C39.2088 25.0027 41.5445 24.049 44.2689 24.0296C46.9933 24.0102 49.2976 24.9309 51.1818 26.7919C53.1506 28.5707 54.1425 30.7232 54.1575 33.2494C54.1726 35.7756 52.8689 38.4741 50.2466 41.345C57.2569 46.1847 62.6492 50.9544 66.4233 55.6542C70.197 60.2724 72.1023 65.6781 72.1391 71.8713C72.1754 77.9831 69.7799 83.2157 64.9528 87.5692C60.1251 91.8412 53.2415 94.009 44.302 94.0726C40.2154 94.1017 36.0812 93.2755 31.8992 91.5939C27.8025 89.9117 24.6823 87.8151 22.5389 85.3041L25.4587 82.3495C29.2217 85.175 33.2742 86.5723 37.6163 86.5414C41.9583 86.5105 45.485 85.3852 48.1963 83.1656C50.9923 80.8639 52.3762 77.3498 52.3481 72.6234C52.3036 65.1264 49.3624 57.324 43.5246 49.2162L25.4559 78.6517L15.0498 87.5228C21.4607 77.4536 33.058 50.1872 37.6022 41.1906Z" fill="black" fill-opacity="0.83"/>
</svg>
