<svg width="56" height="145" viewBox="0 0 56 145" fill="none" xmlns="http://www.w3.org/2000/svg">
<g id="top_half">
<path id="Vector" d="M17.8061 143.72H18.3061V143.22V114.132C18.3273 112.241 18.6618 110.659 19.2886 109.37C19.9374 108.079 20.8415 107.103 22.0018 106.425L22.0042 106.423C23.1893 105.722 24.5645 105.364 26.1455 105.364C28.5294 105.364 30.3317 106.119 31.6204 107.585L31.6204 107.585L31.6229 107.588C32.9386 109.063 33.6179 111.142 33.597 113.893V113.897V143.22V143.72H34.097H49.903H50.403V143.22V110.71C50.4247 106.818 49.7021 103.395 48.2171 100.456C46.7562 97.5009 44.6909 95.193 42.0222 93.5473C39.3669 91.8744 36.2445 91.0474 32.6747 91.0474C28.927 91.0474 25.6696 91.9658 22.9251 93.8223C20.4966 95.4454 18.6974 97.6185 17.5303 100.329V92.2115V91.7115H17.0303H2H1.5V92.2115V143.22V143.72H2H17.8061Z" fill="white" stroke="white"/>
<path id="Vector_2" d="M5.33503 69.8029L5.46401 69.3673L8.95492 57.5782L9.10298 57.0782L9.59634 57.2472C11.1186 57.7685 12.4757 58.0665 13.6713 58.1513C14.8674 58.2345 15.8536 58.0347 16.6558 57.5833L16.6621 57.5798L16.6684 57.5765C17.4605 57.1601 18.104 56.3967 18.5689 55.2128L18.5704 55.2091L19.116 53.852L1.52573 1.15832L1.30597 0.5H2H18.5495H18.9394L19.0344 0.878126L27.9571 36.3805L37.0064 0.876508L37.1024 0.5H37.4909H54.1374H54.8321L54.6115 1.15876L35.8978 57.0443C35.8976 57.045 35.8974 57.0456 35.8972 57.0463C34.976 59.8846 33.6686 62.3936 31.9716 64.5677C30.282 66.7825 28.0945 68.5138 25.4199 69.7629C25.4198 69.7629 25.4197 69.763 25.4196 69.763L5.33503 69.8029ZM5.33503 69.8029L5.75629 69.9729C7.00367 70.4763 8.48255 70.8717 10.1869 71.1638L5.33503 69.8029Z" fill="white" stroke="white"/>
</g>
</svg>
