<svg id="visual" viewBox="0 0 900 600" width="900" height="600" xmlns="http://www.w3.org/2000/svg" xmlns:xlink="http://www.w3.org/1999/xlink" version="1.1"><path d="M0 139L18.8 143.3C37.7 147.7 75.3 156.3 112.8 149.3C150.3 142.3 187.7 119.7 225.2 107.8C262.7 96 300.3 95 337.8 109.3C375.3 123.7 412.7 153.3 450.2 168C487.7 182.7 525.3 182.3 562.8 171C600.3 159.7 637.7 137.3 675.2 134.3C712.7 131.3 750.3 147.7 787.8 152.8C825.3 158 862.7 152 881.3 149L900 146L900 0L881.3 0C862.7 0 825.3 0 787.8 0C750.3 0 712.7 0 675.2 0C637.7 0 600.3 0 562.8 0C525.3 0 487.7 0 450.2 0C412.7 0 375.3 0 337.8 0C300.3 0 262.7 0 225.2 0C187.7 0 150.3 0 112.8 0C75.3 0 37.7 0 18.8 0L0 0Z" fill="#00050d" stroke-linecap="round" stroke-linejoin="miter"></path></svg>