<svg width="537" height="388" viewBox="0 0 537 388" fill="none" xmlns="http://www.w3.org/2000/svg">
<g id="name">
<g id="stroked_logo">
<g id="stroked_sword">
<mask id="path-1-inside-1_28_11" fill="white">
<path d="M387.499 0.616162C384.897 1.60011 383.799 3.44211 381.158 11.3656C378.904 18.084 377.95 20.2252 374.089 26.8976C366.581 39.9402 352.39 59.5596 338.789 75.7193C334.209 81.1664 327.176 89.038 326.89 89.0405C326.819 89.0411 325.675 88.8408 324.317 88.5823C320.993 87.9504 315.995 88.2042 314.036 89.0624C310.757 90.5329 309.233 92.8893 309.249 96.3737C309.262 99.0171 309.986 101.084 311.965 104.401L313.656 107.15L312.093 108.906C259.842 167.307 229.646 200.404 219.019 210.95C217.241 212.708 213.189 216.589 209.989 219.56C206.79 222.562 203.093 226.139 201.742 227.503C190.441 238.986 151.183 273.604 127.706 292.763C109.707 307.459 107.715 308.949 73.2659 333.671C-6.69887 391.083 2.01959 384.729 2.73482 384.963C2.94948 385.051 3.05744 385.231 2.95102 385.382C2.63192 385.865 3.56378 386.608 4.06197 386.243C4.34677 386.06 5.63245 386.109 8.02654 386.479C13.7079 387.331 20.6382 387.991 22.3155 387.796C24.2427 387.599 27.3059 385.98 34.8179 381.229C41.5108 376.965 56.46 366.771 56.8858 366.197C57.0275 365.955 59.2699 364.434 61.7973 362.759C112.81 329.572 161.836 291.505 206.421 250.502C241.975 217.81 284.437 173.431 325.741 125.819L330.749 120.068L333.575 121.185C339.728 123.624 346.407 124.107 350.291 122.391C355.779 119.97 356.466 114.256 352.077 107.115L350.277 104.157L351.342 102.736C356.026 96.3865 364.578 85.0771 367.453 81.3872C372.28 75.2471 374.799 71.6805 379.16 65.0037C386.959 53.01 398.652 33.7127 406.798 19.4029C411.897 10.4367 412.747 8.8372 412.743 8.0562C412.733 5.89344 402.824 1.92447 394.141 0.618344C390.603 0.0784296 388.961 0.0627094 387.499 0.616162ZM393.041 2.12991C393.113 2.18937 392.149 2.25785 390.899 2.26874C389.4 2.28182 388.329 2.44135 387.866 2.74578C387.048 3.26359 386.512 3.32833 386.867 2.87465C387.364 2.1794 389.325 1.71171 391.112 1.87638C392.112 1.95778 392.969 2.07046 393.041 2.12991ZM402.656 4.26903C404.158 4.76661 406.125 5.50045 407.02 5.9132C409.06 6.85669 408.452 6.68175 404.16 5.1571C402.3 4.48241 400.44 3.83775 400.047 3.69098C398.223 3.04601 400.189 3.47947 402.656 4.26903ZM410.215 9.52015C408.977 12.0242 402.708 22.8931 402.564 22.8043C402.493 22.7448 403.554 20.7229 404.9 18.338C406.246 15.9532 408.051 12.6631 408.937 11.0333C410.601 8.04484 411.524 6.92533 410.215 9.52015ZM400.902 26.1832C400.37 27.029 399.909 27.7239 399.802 27.7248C399.695 27.7257 400.049 26.9717 400.58 26.0659C401.111 25.16 401.608 24.4648 401.68 24.5242C401.751 24.5837 401.398 25.3378 400.902 26.1832ZM373.01 70.9751C372.231 72.2436 369.072 76.3565 368.893 76.3581C368.786 76.359 368.963 76.0571 369.247 75.6641C369.531 75.2711 370.56 73.9103 371.483 72.6406C373.079 70.4338 373.896 69.5255 373.01 70.9751ZM320.574 89.9066C320.039 89.9714 319.075 89.9798 318.432 89.9253C317.789 89.8708 318.217 89.807 319.395 89.7967C320.573 89.7865 321.109 89.8419 320.574 89.9066ZM315.364 90.6429C314.544 90.9505 313.44 91.5909 312.978 92.0456C312.374 92.5915 312.16 92.6835 312.301 92.3519C312.584 91.7186 315.54 90.0406 316.325 90.0338C316.647 90.031 316.22 90.305 315.364 90.6429ZM323.61 90.1805C323.361 90.2428 322.932 90.2465 322.718 90.1883C322.467 90.1004 322.646 90.0387 323.145 90.0344C323.645 90.03 323.824 90.0886 323.61 90.1805ZM325.29 90.5564C325.577 90.7041 325.684 90.8534 325.47 90.8552C325.292 90.8568 324.863 90.7103 324.576 90.5626C324.29 90.4149 324.218 90.2654 324.396 90.2638C324.61 90.2619 325.004 90.4087 325.29 90.5564ZM311.843 93.5274C311.737 93.7987 311.559 93.9504 311.487 93.8609C311.38 93.7718 311.414 93.5912 311.556 93.4097C311.876 92.9263 312.09 93.0146 311.843 93.5274ZM334.233 93.963C334.233 94.0231 333.912 93.9658 333.518 93.789C333.124 93.6122 332.802 93.4048 332.802 93.3147C332.801 93.2546 333.123 93.3119 333.517 93.4887C333.91 93.6655 334.233 93.8729 334.233 93.963ZM339.317 96.9828C339.569 97.2209 338.602 96.7186 337.206 95.8597C335.773 95.001 334.591 94.2603 334.591 94.1702C334.59 93.9599 338.815 96.4765 339.317 96.9828ZM311.287 96.8967C311.218 97.3779 311.145 97.0481 311.141 96.2371C311.137 95.396 311.207 95.0349 311.28 95.3948C311.353 95.7846 311.356 96.4455 311.287 96.8967ZM343.008 99.7142C344.585 101.022 345.769 102.093 345.697 102.094C345.59 102.095 344.228 101.025 342.651 99.7173C341.074 98.4094 339.89 97.3382 339.962 97.3376C340.069 97.3367 341.431 98.4062 343.008 99.7142ZM311.941 99.2942C312.087 99.9237 312.809 101.54 313.565 102.885C314.321 104.26 314.897 105.366 314.79 105.367C314.683 105.368 314.036 104.383 313.352 103.157C312.056 100.915 310.863 97.7715 311.4 98.0372C311.543 98.1261 311.795 98.6946 311.941 99.2942ZM348.911 102.066C349.197 102.214 349.305 102.423 349.163 102.544C349.021 102.666 348.627 102.549 348.305 102.282C347.659 101.746 348.016 101.593 348.911 102.066ZM346.594 102.987C346.953 103.315 347.168 103.583 347.061 103.584C346.954 103.585 346.596 103.318 346.237 102.99C345.878 102.663 345.663 102.395 345.77 102.394C345.877 102.393 346.235 102.66 346.594 102.987ZM321.967 105.245C321.86 105.336 321.574 105.248 321.323 105.04C321 104.742 321.036 104.712 321.537 104.888C321.894 104.975 322.074 105.154 321.967 105.245ZM348.928 105.701C349.467 106.537 349.109 106.39 348.391 105.495C348.068 105.047 347.959 104.808 348.174 104.896C348.389 105.014 348.748 105.372 348.928 105.701ZM320.724 106.637C322.797 107.16 324.8 107.954 326.698 108.958C327.557 109.402 328.344 109.755 328.487 109.754C328.844 109.781 331.674 111.829 331.353 111.832C331.21 111.833 329.957 111.213 328.526 110.444C325.197 108.701 320.153 106.702 319.69 106.947C318.977 107.344 314.927 111.765 300.009 128.567C291.662 137.922 281.396 149.366 277.133 153.999C204.874 232.822 129.947 298.662 44.637 358.283C39.7611 361.69 31.1836 367.652 25.5956 371.486C14.2417 379.305 9.54543 382.951 10.155 383.486C10.621 383.873 14.1582 384.353 16.479 384.332C17.4074 384.324 18.1578 384.438 18.1586 384.618C18.1593 384.768 17.6958 384.923 17.1245 384.928C15.8749 384.939 7.69423 384.139 7.515 383.99C7.29978 383.782 14.3463 378.764 27.0174 370.092C52.324 352.779 75.3841 336.116 95.6993 320.439C173.189 260.675 239.31 197.857 308.992 117.764C314.497 111.408 319.044 106.231 319.079 106.231C319.079 106.231 319.83 106.405 320.724 106.637ZM350.978 108.807C351.662 110.063 352.202 111.109 352.131 111.2C352.06 111.261 351.377 110.245 350.657 108.93C349.937 107.644 349.432 106.567 349.503 106.567C349.61 106.566 350.258 107.581 350.978 108.807ZM329.659 108.422C329.659 108.482 329.337 108.425 328.944 108.248C328.55 108.071 328.228 107.864 328.227 107.774C328.227 107.713 328.549 107.771 328.942 107.948C329.336 108.124 329.658 108.332 329.659 108.422ZM335.426 112.307C335.892 112.783 335.857 112.814 335.319 112.428C334.961 112.221 334.674 111.983 334.674 111.923C334.673 111.683 334.959 111.83 335.426 112.307ZM352.422 112.309C352.316 112.55 352.209 112.461 352.207 112.131C352.17 111.8 352.276 111.619 352.384 111.738C352.491 111.828 352.528 112.098 352.422 112.309ZM336.823 113.316C336.824 113.496 336.681 113.528 336.467 113.439C336.288 113.351 336.108 113.112 336.107 112.962C336.106 112.782 336.285 112.75 336.464 112.839C336.678 112.927 336.822 113.166 336.823 113.316ZM333.538 113.375C333.79 113.673 331.944 116.002 326.616 122.086C265.492 192.071 220.215 237.795 170.28 279.956C127.351 316.167 84.8965 346.817 32.0969 379.69C24.7981 384.2 22.9458 385.147 21.0536 385.194C20.0895 385.202 21.4064 384.29 22.9043 383.916C26.3637 383.015 41.9574 373.206 69.2583 354.764C95.7762 336.87 112.788 324.765 129.047 312.337C192.912 263.387 244.173 214.426 313.363 136.17C325.547 122.426 330.34 116.707 331.686 114.442C332.572 112.963 332.928 112.779 333.538 113.375ZM335.404 115.191C335.404 115.251 335.048 115.554 334.621 115.889L333.803 116.466L334.478 115.77C335.118 115.133 335.402 114.951 335.404 115.191ZM352.555 117.865C352.165 118.379 352.165 118.379 352.341 117.867C352.447 117.566 352.552 117.144 352.587 116.964C352.586 116.693 352.657 116.693 352.765 116.962C352.873 117.171 352.768 117.563 352.555 117.865ZM332.704 118.278C332.563 118.52 332.314 118.732 332.135 118.734C331.921 118.736 331.956 118.555 332.204 118.283C332.453 118.04 332.702 117.828 332.774 117.827C332.845 117.827 332.81 118.037 332.704 118.278ZM351.279 119.799C350.923 120.132 350.283 120.558 349.891 120.742C349.499 120.926 349.747 120.623 350.424 120.137C351.882 119.042 352.239 118.889 351.279 119.799ZM348.644 121.294C348.359 121.446 347.859 121.571 347.574 121.573C347.217 121.576 347.288 121.486 347.751 121.301C348.713 120.933 349.285 120.928 348.644 121.294ZM345.718 121.83C345.147 121.895 344.29 121.902 343.754 121.847C343.183 121.792 343.647 121.728 344.718 121.718C345.789 121.709 346.253 121.765 345.718 121.83ZM295.626 130.377C285.325 141.912 278.397 149.542 278.183 149.544C278.076 149.545 278.218 149.304 278.502 149.001C278.786 148.728 283.688 143.278 289.407 136.89C295.126 130.532 299.887 125.323 299.958 125.323C300.065 125.322 298.112 127.592 295.626 130.377ZM278.078 149.936C278.078 149.996 277.723 150.299 277.296 150.634L276.477 151.211L277.152 150.515C277.792 149.878 278.077 149.695 278.078 149.936ZM276.657 151.48C276.657 151.54 276.373 151.783 276.052 151.996C275.483 152.392 275.447 152.362 275.909 151.877C276.371 151.393 276.656 151.24 276.657 151.48Z"/>
</mask>
<path d="M387.499 0.616162C384.897 1.60011 383.799 3.44211 381.158 11.3656C378.904 18.084 377.95 20.2252 374.089 26.8976C366.581 39.9402 352.39 59.5596 338.789 75.7193C334.209 81.1664 327.176 89.038 326.89 89.0405C326.819 89.0411 325.675 88.8408 324.317 88.5823C320.993 87.9504 315.995 88.2042 314.036 89.0624C310.757 90.5329 309.233 92.8893 309.249 96.3737C309.262 99.0171 309.986 101.084 311.965 104.401L313.656 107.15L312.093 108.906C259.842 167.307 229.646 200.404 219.019 210.95C217.241 212.708 213.189 216.589 209.989 219.56C206.79 222.562 203.093 226.139 201.742 227.503C190.441 238.986 151.183 273.604 127.706 292.763C109.707 307.459 107.715 308.949 73.2659 333.671C-6.69887 391.083 2.01959 384.729 2.73482 384.963C2.94948 385.051 3.05744 385.231 2.95102 385.382C2.63192 385.865 3.56378 386.608 4.06197 386.243C4.34677 386.06 5.63245 386.109 8.02654 386.479C13.7079 387.331 20.6382 387.991 22.3155 387.796C24.2427 387.599 27.3059 385.98 34.8179 381.229C41.5108 376.965 56.46 366.771 56.8858 366.197C57.0275 365.955 59.2699 364.434 61.7973 362.759C112.81 329.572 161.836 291.505 206.421 250.502C241.975 217.81 284.437 173.431 325.741 125.819L330.749 120.068L333.575 121.185C339.728 123.624 346.407 124.107 350.291 122.391C355.779 119.97 356.466 114.256 352.077 107.115L350.277 104.157L351.342 102.736C356.026 96.3865 364.578 85.0771 367.453 81.3872C372.28 75.2471 374.799 71.6805 379.16 65.0037C386.959 53.01 398.652 33.7127 406.798 19.4029C411.897 10.4367 412.747 8.8372 412.743 8.0562C412.733 5.89344 402.824 1.92447 394.141 0.618344C390.603 0.0784296 388.961 0.0627094 387.499 0.616162ZM393.041 2.12991C393.113 2.18937 392.149 2.25785 390.899 2.26874C389.4 2.28182 388.329 2.44135 387.866 2.74578C387.048 3.26359 386.512 3.32833 386.867 2.87465C387.364 2.1794 389.325 1.71171 391.112 1.87638C392.112 1.95778 392.969 2.07046 393.041 2.12991ZM402.656 4.26903C404.158 4.76661 406.125 5.50045 407.02 5.9132C409.06 6.85669 408.452 6.68175 404.16 5.1571C402.3 4.48241 400.44 3.83775 400.047 3.69098C398.223 3.04601 400.189 3.47947 402.656 4.26903ZM410.215 9.52015C408.977 12.0242 402.708 22.8931 402.564 22.8043C402.493 22.7448 403.554 20.7229 404.9 18.338C406.246 15.9532 408.051 12.6631 408.937 11.0333C410.601 8.04484 411.524 6.92533 410.215 9.52015ZM400.902 26.1832C400.37 27.029 399.909 27.7239 399.802 27.7248C399.695 27.7257 400.049 26.9717 400.58 26.0659C401.111 25.16 401.608 24.4648 401.68 24.5242C401.751 24.5837 401.398 25.3378 400.902 26.1832ZM373.01 70.9751C372.231 72.2436 369.072 76.3565 368.893 76.3581C368.786 76.359 368.963 76.0571 369.247 75.6641C369.531 75.2711 370.56 73.9103 371.483 72.6406C373.079 70.4338 373.896 69.5255 373.01 70.9751ZM320.574 89.9066C320.039 89.9714 319.075 89.9798 318.432 89.9253C317.789 89.8708 318.217 89.807 319.395 89.7967C320.573 89.7865 321.109 89.8419 320.574 89.9066ZM315.364 90.6429C314.544 90.9505 313.44 91.5909 312.978 92.0456C312.374 92.5915 312.16 92.6835 312.301 92.3519C312.584 91.7186 315.54 90.0406 316.325 90.0338C316.647 90.031 316.22 90.305 315.364 90.6429ZM323.61 90.1805C323.361 90.2428 322.932 90.2465 322.718 90.1883C322.467 90.1004 322.646 90.0387 323.145 90.0344C323.645 90.03 323.824 90.0886 323.61 90.1805ZM325.29 90.5564C325.577 90.7041 325.684 90.8534 325.47 90.8552C325.292 90.8568 324.863 90.7103 324.576 90.5626C324.29 90.4149 324.218 90.2654 324.396 90.2638C324.61 90.2619 325.004 90.4087 325.29 90.5564ZM311.843 93.5274C311.737 93.7987 311.559 93.9504 311.487 93.8609C311.38 93.7718 311.414 93.5912 311.556 93.4097C311.876 92.9263 312.09 93.0146 311.843 93.5274ZM334.233 93.963C334.233 94.0231 333.912 93.9658 333.518 93.789C333.124 93.6122 332.802 93.4048 332.802 93.3147C332.801 93.2546 333.123 93.3119 333.517 93.4887C333.91 93.6655 334.233 93.8729 334.233 93.963ZM339.317 96.9828C339.569 97.2209 338.602 96.7186 337.206 95.8597C335.773 95.001 334.591 94.2603 334.591 94.1702C334.59 93.9599 338.815 96.4765 339.317 96.9828ZM311.287 96.8967C311.218 97.3779 311.145 97.0481 311.141 96.2371C311.137 95.396 311.207 95.0349 311.28 95.3948C311.353 95.7846 311.356 96.4455 311.287 96.8967ZM343.008 99.7142C344.585 101.022 345.769 102.093 345.697 102.094C345.59 102.095 344.228 101.025 342.651 99.7173C341.074 98.4094 339.89 97.3382 339.962 97.3376C340.069 97.3367 341.431 98.4062 343.008 99.7142ZM311.941 99.2942C312.087 99.9237 312.809 101.54 313.565 102.885C314.321 104.26 314.897 105.366 314.79 105.367C314.683 105.368 314.036 104.383 313.352 103.157C312.056 100.915 310.863 97.7715 311.4 98.0372C311.543 98.1261 311.795 98.6946 311.941 99.2942ZM348.911 102.066C349.197 102.214 349.305 102.423 349.163 102.544C349.021 102.666 348.627 102.549 348.305 102.282C347.659 101.746 348.016 101.593 348.911 102.066ZM346.594 102.987C346.953 103.315 347.168 103.583 347.061 103.584C346.954 103.585 346.596 103.318 346.237 102.99C345.878 102.663 345.663 102.395 345.77 102.394C345.877 102.393 346.235 102.66 346.594 102.987ZM321.967 105.245C321.86 105.336 321.574 105.248 321.323 105.04C321 104.742 321.036 104.712 321.537 104.888C321.894 104.975 322.074 105.154 321.967 105.245ZM348.928 105.701C349.467 106.537 349.109 106.39 348.391 105.495C348.068 105.047 347.959 104.808 348.174 104.896C348.389 105.014 348.748 105.372 348.928 105.701ZM320.724 106.637C322.797 107.16 324.8 107.954 326.698 108.958C327.557 109.402 328.344 109.755 328.487 109.754C328.844 109.781 331.674 111.829 331.353 111.832C331.21 111.833 329.957 111.213 328.526 110.444C325.197 108.701 320.153 106.702 319.69 106.947C318.977 107.344 314.927 111.765 300.009 128.567C291.662 137.922 281.396 149.366 277.133 153.999C204.874 232.822 129.947 298.662 44.637 358.283C39.7611 361.69 31.1836 367.652 25.5956 371.486C14.2417 379.305 9.54543 382.951 10.155 383.486C10.621 383.873 14.1582 384.353 16.479 384.332C17.4074 384.324 18.1578 384.438 18.1586 384.618C18.1593 384.768 17.6958 384.923 17.1245 384.928C15.8749 384.939 7.69423 384.139 7.515 383.99C7.29978 383.782 14.3463 378.764 27.0174 370.092C52.324 352.779 75.3841 336.116 95.6993 320.439C173.189 260.675 239.31 197.857 308.992 117.764C314.497 111.408 319.044 106.231 319.079 106.231C319.079 106.231 319.83 106.405 320.724 106.637ZM350.978 108.807C351.662 110.063 352.202 111.109 352.131 111.2C352.06 111.261 351.377 110.245 350.657 108.93C349.937 107.644 349.432 106.567 349.503 106.567C349.61 106.566 350.258 107.581 350.978 108.807ZM329.659 108.422C329.659 108.482 329.337 108.425 328.944 108.248C328.55 108.071 328.228 107.864 328.227 107.774C328.227 107.713 328.549 107.771 328.942 107.948C329.336 108.124 329.658 108.332 329.659 108.422ZM335.426 112.307C335.892 112.783 335.857 112.814 335.319 112.428C334.961 112.221 334.674 111.983 334.674 111.923C334.673 111.683 334.959 111.83 335.426 112.307ZM352.422 112.309C352.316 112.55 352.209 112.461 352.207 112.131C352.17 111.8 352.276 111.619 352.384 111.738C352.491 111.828 352.528 112.098 352.422 112.309ZM336.823 113.316C336.824 113.496 336.681 113.528 336.467 113.439C336.288 113.351 336.108 113.112 336.107 112.962C336.106 112.782 336.285 112.75 336.464 112.839C336.678 112.927 336.822 113.166 336.823 113.316ZM333.538 113.375C333.79 113.673 331.944 116.002 326.616 122.086C265.492 192.071 220.215 237.795 170.28 279.956C127.351 316.167 84.8965 346.817 32.0969 379.69C24.7981 384.2 22.9458 385.147 21.0536 385.194C20.0895 385.202 21.4064 384.29 22.9043 383.916C26.3637 383.015 41.9574 373.206 69.2583 354.764C95.7762 336.87 112.788 324.765 129.047 312.337C192.912 263.387 244.173 214.426 313.363 136.17C325.547 122.426 330.34 116.707 331.686 114.442C332.572 112.963 332.928 112.779 333.538 113.375ZM335.404 115.191C335.404 115.251 335.048 115.554 334.621 115.889L333.803 116.466L334.478 115.77C335.118 115.133 335.402 114.951 335.404 115.191ZM352.555 117.865C352.165 118.379 352.165 118.379 352.341 117.867C352.447 117.566 352.552 117.144 352.587 116.964C352.586 116.693 352.657 116.693 352.765 116.962C352.873 117.171 352.768 117.563 352.555 117.865ZM332.704 118.278C332.563 118.52 332.314 118.732 332.135 118.734C331.921 118.736 331.956 118.555 332.204 118.283C332.453 118.04 332.702 117.828 332.774 117.827C332.845 117.827 332.81 118.037 332.704 118.278ZM351.279 119.799C350.923 120.132 350.283 120.558 349.891 120.742C349.499 120.926 349.747 120.623 350.424 120.137C351.882 119.042 352.239 118.889 351.279 119.799ZM348.644 121.294C348.359 121.446 347.859 121.571 347.574 121.573C347.217 121.576 347.288 121.486 347.751 121.301C348.713 120.933 349.285 120.928 348.644 121.294ZM345.718 121.83C345.147 121.895 344.29 121.902 343.754 121.847C343.183 121.792 343.647 121.728 344.718 121.718C345.789 121.709 346.253 121.765 345.718 121.83ZM295.626 130.377C285.325 141.912 278.397 149.542 278.183 149.544C278.076 149.545 278.218 149.304 278.502 149.001C278.786 148.728 283.688 143.278 289.407 136.89C295.126 130.532 299.887 125.323 299.958 125.323C300.065 125.322 298.112 127.592 295.626 130.377ZM278.078 149.936C278.078 149.996 277.723 150.299 277.296 150.634L276.477 151.211L277.152 150.515C277.792 149.878 278.077 149.695 278.078 149.936ZM276.657 151.48C276.657 151.54 276.373 151.783 276.052 151.996C275.483 152.392 275.447 152.362 275.909 151.877C276.371 151.393 276.656 151.24 276.657 151.48Z" stroke="black" stroke-width="2" mask="url(#path-1-inside-1_28_11)"/>
</g>
<path id="stroke_symbol" d="M158.912 163.817L159.519 162.699L158.767 161.678C150.19 150.029 146.09 139.881 146.049 131.171C146.009 122.51 149.623 114.809 157.15 107.998C165.014 100.884 174.416 97.276 185.463 97.1798C196.51 97.0836 205.746 100.528 213.302 107.48L213.334 107.509L213.368 107.538C221.279 114.194 225.152 122.134 225.196 131.445C225.239 140.633 220.128 150.795 209.182 161.97L207.461 163.726L209.523 165.05C239.029 184 261.625 202.63 277.381 220.924L277.387 220.931L277.393 220.937C292.996 238.74 300.841 259.563 300.953 283.493C301.063 306.912 291.221 327.008 271.191 343.868C251.234 360.346 222.635 368.886 185.115 369.213C168.106 369.361 150.878 366.193 133.419 359.681C117.159 353.486 104.729 345.878 96.0077 336.923L105.735 327.742C121.567 338.449 138.642 343.751 156.92 343.591C175.59 343.429 190.963 338.882 202.87 329.782L202.875 329.779C215.331 320.207 221.372 305.674 221.283 286.596C221.142 256.477 208.519 225.34 183.723 193.219L182.015 191.005L180.47 193.348L104.064 309.242L69.7475 336.548C82.6307 315.559 98.7391 284.308 114.081 253.558C120.348 240.998 126.488 228.518 132.238 216.832C143.13 194.695 152.62 175.407 158.912 163.817Z" stroke="black" stroke-width="4"/>
</g>
<g id="yncei">
<path id="Vector" d="M520.706 323.663V324.163H521.206H535.791H536.291V323.663V272.654V272.154H535.791H521.206H520.706V272.654V323.663ZM522.874 264.799L522.874 264.799L522.877 264.801C524.439 266.4 526.327 267.21 528.514 267.21C530.719 267.21 532.608 266.401 534.153 264.799L534.153 264.799C535.715 263.177 536.5 261.214 536.5 258.939C536.5 256.686 535.715 254.745 534.153 253.146C532.609 251.523 530.72 250.702 528.514 250.702C526.325 250.702 524.437 251.524 522.875 253.145C521.312 254.744 520.527 256.685 520.527 258.939C520.527 261.214 521.312 263.177 522.874 264.799Z" fill="black" stroke="black"/>
<path id="Vector_2" d="M479.343 321.897L479.346 321.898C482.917 324.057 487.146 325.125 492.013 325.125C496.066 325.125 499.657 324.441 502.774 323.057L502.777 323.055C505.889 321.651 508.413 319.686 510.336 317.157C512.279 314.608 513.532 311.619 514.101 308.203L514.194 307.639L513.623 307.621L500.231 307.189L499.859 307.177L499.741 307.53C499.385 308.595 498.855 309.48 498.157 310.196C497.454 310.916 496.612 311.463 495.624 311.837C494.634 312.211 493.522 312.403 492.281 312.403C490.491 312.403 488.977 311.99 487.718 311.186C486.451 310.377 485.468 309.245 484.77 307.775C484.079 306.298 483.722 304.569 483.714 302.577H513.756H514.256V302.077V298.025C514.256 293.798 513.704 290.034 512.59 286.74C511.478 283.432 509.916 280.637 507.896 278.366C505.878 276.096 503.48 274.38 500.706 273.222C497.934 272.065 494.885 271.49 491.565 271.49C486.869 271.49 482.765 272.618 479.273 274.891C475.788 277.137 473.094 280.289 471.189 284.329C469.282 288.349 468.337 293.03 468.337 298.357C468.337 303.837 469.271 308.595 471.158 312.617L471.16 312.62C473.067 316.619 475.795 319.717 479.343 321.897ZM499.669 292.145H483.757C483.88 290.783 484.244 289.561 484.845 288.47L484.846 288.467C485.562 287.145 486.527 286.116 487.741 285.367L487.741 285.367L487.747 285.363C488.954 284.598 490.321 284.212 491.864 284.212C493.39 284.212 494.718 284.578 495.863 285.298L495.863 285.298L495.871 285.303C497.042 286.007 497.965 286.99 498.64 288.264C499.244 289.404 499.59 290.695 499.669 292.145Z" fill="black" stroke="black"/>
<path id="Vector_3" d="M429.158 321.725L429.159 321.726C432.713 323.999 436.956 325.125 441.866 325.125C446.229 325.125 450.024 324.248 453.234 322.473L453.235 322.472C456.458 320.677 458.962 318.163 460.737 314.938C462.531 311.714 463.491 307.959 463.633 303.687L463.65 303.171H463.133H449.502H449.049L449.004 303.621C448.83 305.364 448.417 306.825 447.78 308.016C447.14 309.189 446.332 310.059 445.364 310.649L445.361 310.651C444.414 311.239 443.315 311.539 442.045 311.539C440.468 311.539 439.1 311.057 437.92 310.093C436.737 309.104 435.786 307.632 435.092 305.635C434.418 303.62 434.074 301.132 434.074 298.158C434.074 295.183 434.419 292.718 435.091 290.749C435.786 288.751 436.736 287.29 437.918 286.324L437.918 286.324L437.921 286.321C439.102 285.335 440.47 284.843 442.045 284.843C443.999 284.843 445.548 285.53 446.739 286.897L446.741 286.9C447.966 288.283 448.734 290.222 449.005 292.765L449.052 293.212H449.502H463.133H463.645L463.633 292.7C463.532 288.447 462.571 284.721 460.733 281.538C458.917 278.335 456.384 275.856 453.14 274.107C449.913 272.356 446.139 271.49 441.836 271.49C436.965 271.49 432.742 272.616 429.189 274.889L429.188 274.89C425.663 277.158 422.948 280.321 421.042 284.362L421.042 284.363C419.156 288.383 418.221 293.04 418.221 298.324C418.221 303.586 419.156 308.243 421.041 312.284L421.042 312.285C422.928 316.305 425.634 319.457 429.158 321.725Z" fill="black" stroke="black"/>
<path id="Vector_4" d="M381.832 324.162H382.332V323.662V294.574C382.352 292.678 382.661 291.091 383.241 289.798C383.842 288.504 384.676 287.531 385.739 286.858L385.741 286.856C386.826 286.16 388.082 285.806 389.527 285.806C391.704 285.806 393.353 286.551 394.538 288.012L394.538 288.012L394.54 288.015C395.754 289.49 396.384 291.575 396.365 294.336V294.339V323.662V324.162H396.865H411.45H411.95V323.662V291.152C411.97 287.265 411.304 283.848 409.936 280.913C408.589 277.961 406.683 275.65 404.214 274C401.755 272.321 398.86 271.49 395.552 271.49C392.079 271.49 389.06 272.413 386.519 274.276C384.326 275.863 382.693 277.973 381.616 280.588V272.654V272.154H381.116H367.247H366.747V272.654V323.662V324.162H367.247H381.832Z" fill="black" stroke="black"/>
<path id="Vector_5" d="M316.586 341.448L316.7 341.032L319.921 329.243L320.065 328.716L320.578 328.906C321.978 329.426 323.224 329.722 324.319 329.806C325.409 329.888 326.304 329.691 327.033 329.246L327.04 329.243L327.046 329.239C327.766 328.829 328.361 328.07 328.792 326.88L328.793 326.876L329.301 325.507L313.066 272.801L312.866 272.154H313.543H328.815H329.212L329.302 272.541L337.496 307.874L345.807 272.54L345.897 272.154H346.293H361.654H362.332L362.132 272.802L344.863 328.688C344.863 328.688 344.863 328.689 344.863 328.69C344.014 331.525 342.808 334.032 341.242 336.207C339.683 338.422 337.662 340.157 335.186 341.41L316.586 341.448ZM316.586 341.448L316.982 341.622M316.586 341.448L316.982 341.622M316.982 341.622C318.138 342.127 319.508 342.524 321.084 342.817M316.982 341.622L321.084 342.817M321.084 342.817C322.67 343.133 324.352 343.291 326.13 343.291C329.685 343.291 332.71 342.673 335.185 341.41L321.084 342.817Z" fill="black" stroke="black"/>
</g>
</g>
</svg>
