<svg width="243" height="118" viewBox="0 0 243 118" fill="none" xmlns="http://www.w3.org/2000/svg">
<g id="symbol_logo">
<path id="sword" d="M127.037 0.909829C126.183 1.20458 125.824 1.75749 124.959 4.13653C124.221 6.15377 123.909 6.79658 122.644 8.7995C120.184 12.7146 115.533 18.6031 111.076 23.4526C109.574 25.0873 107.269 27.4494 107.175 27.4501C107.152 27.4503 106.777 27.3897 106.331 27.3117C105.241 27.1209 103.601 27.1956 102.959 27.4528C101.884 27.8935 101.384 28.6007 101.39 29.6473C101.395 30.4413 101.633 31.0622 102.283 32.0591L102.838 32.8852L102.326 33.4122C85.1992 50.9376 75.3016 60.8691 71.818 64.0336C71.2354 64.561 69.907 65.7253 68.858 66.6169C67.8092 67.5175 66.5973 68.5908 66.1546 68.9999C62.4501 72.4456 49.58 82.8312 41.8831 88.5788C35.9822 92.9874 35.3289 93.4341 24.0342 100.849C-2.1839 118.069 0.674606 116.163 0.909287 116.234C0.979724 116.26 1.01518 116.314 0.980309 116.359C0.875746 116.504 1.18161 116.728 1.34495 116.618C1.43833 116.564 1.8601 116.579 2.64555 116.69C4.50947 116.948 6.78303 117.148 7.33321 117.09C7.96538 117.032 8.96986 116.547 11.433 115.122C13.6275 113.843 18.529 110.786 18.6686 110.613C18.715 110.541 19.4502 110.085 20.2789 109.582C37.0053 99.6298 53.0788 88.211 67.6947 75.9093C79.3501 66.1007 93.2689 52.7844 106.807 38.4963L108.448 36.7704L109.376 37.1068C111.395 37.8414 113.586 37.9883 114.86 37.4741C116.659 36.7486 116.883 35.0327 115.442 32.8865L114.851 31.9974L115.2 31.5709C116.735 29.6653 119.538 26.2711 120.48 25.1637C122.062 23.3209 122.887 22.2504 124.316 20.2464C126.872 16.6464 130.703 10.8539 133.372 6.55835C135.043 3.86685 135.321 3.38669 135.319 3.15212C135.316 2.50252 132.064 1.30742 129.215 0.912494C128.055 0.749258 127.516 0.744039 127.037 0.909829ZM128.855 1.36617C128.878 1.38405 128.562 1.40432 128.152 1.40722C127.66 1.41069 127.309 1.45828 127.158 1.54958C126.889 1.70486 126.714 1.72414 126.83 1.58798C126.993 1.37931 127.636 1.23943 128.222 1.28943C128.55 1.31418 128.831 1.34829 128.855 1.36617ZM132.01 2.01157C132.502 2.16147 133.148 2.38248 133.442 2.50672C134.111 2.79072 133.911 2.73799 132.503 2.27876C131.893 2.07555 131.283 1.88136 131.154 1.83716C130.555 1.64289 131.2 1.77367 132.01 2.01157ZM134.49 3.59105C134.085 4.34279 132.031 7.60541 131.984 7.57868C131.96 7.5608 132.308 6.95383 132.749 6.23794C133.19 5.52204 133.782 4.5344 134.071 4.04514C134.617 3.14805 134.919 2.81208 134.49 3.59105ZM131.439 8.59305C131.265 8.84691 131.114 9.0555 131.079 9.05575C131.044 9.05599 131.16 8.82961 131.334 8.55771C131.508 8.2858 131.671 8.07713 131.694 8.09501C131.718 8.11289 131.602 8.33927 131.439 8.59305ZM122.3 22.038C122.045 22.4188 121.01 23.6532 120.951 23.6536C120.916 23.6538 120.974 23.5632 121.067 23.4452C121.16 23.3273 121.497 22.9189 121.8 22.5378C122.323 21.8755 122.591 21.6029 122.3 22.038ZM105.104 27.7083C104.928 27.7276 104.612 27.7298 104.401 27.7133C104.19 27.6967 104.33 27.6777 104.717 27.675C105.103 27.6722 105.279 27.689 105.104 27.7083ZM103.395 27.9279C103.126 28.02 102.764 28.2121 102.612 28.3485C102.414 28.5123 102.344 28.5398 102.39 28.4403C102.483 28.2501 103.452 27.747 103.71 27.7452C103.815 27.7445 103.675 27.8267 103.395 27.9279ZM106.1 27.7915C106.018 27.8101 105.877 27.8111 105.807 27.7936C105.725 27.7671 105.783 27.7486 105.947 27.7475C106.111 27.7463 106.17 27.764 106.1 27.7915ZM106.651 27.9049C106.745 27.9494 106.78 27.9942 106.71 27.9947C106.651 27.9951 106.511 27.951 106.417 27.9066C106.323 27.8621 106.299 27.8172 106.358 27.8168C106.428 27.8163 106.557 27.8605 106.651 27.9049ZM102.24 28.7932C102.206 28.8746 102.147 28.9202 102.124 28.8933C102.088 28.8665 102.1 28.8122 102.146 28.7578C102.251 28.6127 102.321 28.6392 102.24 28.7932ZM109.585 28.9308C109.585 28.9489 109.48 28.9316 109.351 28.8783C109.222 28.8251 109.116 28.7627 109.116 28.7356C109.115 28.7176 109.221 28.7349 109.35 28.7881C109.479 28.8413 109.585 28.9038 109.585 28.9308ZM111.254 29.8393C111.336 29.9109 111.019 29.7598 110.561 29.5014C110.091 29.243 109.703 29.0202 109.703 28.9932C109.702 28.93 111.089 29.6871 111.254 29.8393ZM102.059 29.805C102.036 29.9495 102.012 29.8505 102.011 29.6069C102.009 29.3542 102.032 29.2458 102.056 29.3539C102.08 29.471 102.081 29.6695 102.059 29.805ZM112.465 30.6609C112.983 31.0542 113.371 31.3763 113.348 31.3764C113.313 31.3767 112.866 31.055 112.348 30.6617C111.83 30.2684 111.442 29.9463 111.465 29.9461C111.501 29.9459 111.948 30.2675 112.465 30.6609ZM102.274 30.5253C102.322 30.7144 102.559 31.2 102.807 31.6042C103.056 32.0175 103.245 32.35 103.21 32.3503C103.175 32.3505 102.962 32.0543 102.738 31.6859C102.312 31.0122 101.92 30.0676 102.096 30.1476C102.143 30.1743 102.226 30.3452 102.274 30.5253ZM114.402 31.369C114.496 31.4135 114.532 31.4764 114.485 31.5128C114.438 31.5492 114.309 31.514 114.203 31.4336C113.992 31.2727 114.108 31.2267 114.402 31.369ZM113.642 31.645C113.76 31.7435 113.831 31.8242 113.796 31.8244C113.761 31.8247 113.643 31.7443 113.525 31.6459C113.408 31.5475 113.337 31.4668 113.372 31.4665C113.407 31.4663 113.525 31.5466 113.642 31.645ZM105.564 32.3156C105.529 32.3429 105.435 32.3165 105.353 32.2539C105.247 32.1645 105.259 32.1554 105.423 32.2083C105.54 32.2346 105.599 32.2883 105.564 32.3156ZM114.409 32.4607C114.586 32.7121 114.468 32.6678 114.232 32.3988C114.126 32.2642 114.091 32.1923 114.161 32.2188C114.232 32.2544 114.349 32.3619 114.409 32.4607ZM105.157 32.7335C105.837 32.8911 106.494 33.1301 107.117 33.4325C107.399 33.5658 107.657 33.6723 107.704 33.6719C107.821 33.6801 108.75 34.2961 108.645 34.2969C108.598 34.2972 108.187 34.1106 107.717 33.8794C106.624 33.3547 104.969 32.7529 104.818 32.8261C104.584 32.9451 103.256 34.2718 98.3667 39.3138C95.6306 42.1211 92.2657 45.5554 90.8683 46.9457C67.1831 70.5987 42.6198 90.351 14.6486 108.233C13.0499 109.255 10.2376 111.043 8.40536 112.193C4.68267 114.538 3.14297 115.631 3.34304 115.792C3.496 115.908 4.65647 116.054 5.4178 116.048C5.72233 116.046 5.96851 116.081 5.96883 116.135C5.9691 116.18 5.8171 116.226 5.6297 116.227C5.21975 116.23 2.53598 115.987 2.47715 115.943C2.4065 115.88 4.71685 114.375 8.87142 111.774C17.1689 106.582 24.7296 101.584 31.3902 96.8815C56.7959 78.9547 78.4714 60.1069 101.311 36.072C103.115 34.1645 104.605 32.6111 104.617 32.611C104.617 32.611 104.863 32.6634 105.157 32.7335ZM115.082 33.3943C115.306 33.7716 115.484 34.0862 115.461 34.1134C115.437 34.1316 115.213 33.8264 114.976 33.4311C114.74 33.0448 114.574 32.7212 114.597 32.721C114.633 32.7208 114.845 33.026 115.082 33.3943ZM108.088 33.2722C108.088 33.2903 107.983 33.273 107.854 33.2197C107.724 33.1665 107.619 33.1041 107.618 33.077C107.618 33.059 107.724 33.0763 107.853 33.1295C107.982 33.1828 108.088 33.2452 108.088 33.2722ZM109.981 34.4408C110.134 34.5841 110.122 34.5932 109.946 34.4772C109.828 34.4148 109.734 34.3433 109.734 34.3253C109.734 34.2531 109.828 34.2975 109.981 34.4408ZM115.556 34.4466C115.522 34.519 115.486 34.4922 115.486 34.3929C115.474 34.2938 115.508 34.2394 115.544 34.2752C115.579 34.3021 115.591 34.3832 115.556 34.4466ZM110.439 34.7444C110.44 34.7985 110.393 34.8078 110.323 34.7813C110.264 34.7546 110.205 34.6829 110.205 34.6377C110.204 34.5836 110.263 34.5742 110.322 34.6008C110.392 34.6274 110.439 34.6992 110.439 34.7444ZM109.362 34.761C109.444 34.8506 108.84 35.5496 107.093 37.3755C87.0587 58.3771 72.2169 72.097 55.8461 84.7449C41.7723 95.6082 27.8526 104.801 10.54 114.659C8.14677 116.011 7.53936 116.295 6.91863 116.308C6.60239 116.311 7.03416 116.037 7.52546 115.925C8.66006 115.655 13.7731 112.714 22.7246 107.183C31.4193 101.817 36.9968 98.1862 42.3278 94.4584C63.2664 79.7752 80.0703 65.0851 102.749 41.6017C106.743 37.4772 108.314 35.7609 108.755 35.0811C109.045 34.6369 109.162 34.5819 109.362 34.761ZM109.974 35.307C109.974 35.3251 109.858 35.4161 109.718 35.5164L109.449 35.6897L109.671 35.4806C109.88 35.2897 109.974 35.2349 109.974 35.307ZM115.601 36.1154C115.473 36.2697 115.473 36.2697 115.531 36.1159C115.566 36.0255 115.6 35.8989 115.612 35.8447C115.611 35.7635 115.634 35.7633 115.67 35.8443C115.706 35.9072 115.671 36.0247 115.601 36.1154ZM109.09 36.2336C109.043 36.3061 108.962 36.3698 108.903 36.3702C108.833 36.3707 108.844 36.3165 108.926 36.2347C109.007 36.162 109.089 36.0983 109.112 36.0981C109.136 36.0979 109.124 36.1612 109.09 36.2336ZM115.183 36.6958C115.067 36.7959 114.857 36.9237 114.728 36.9787C114.6 37.0338 114.681 36.943 114.903 36.7971C115.381 36.4689 115.498 36.4229 115.183 36.6958ZM114.319 37.144C114.226 37.1898 114.062 37.2271 113.968 37.2277C113.851 37.2285 113.874 37.2013 114.026 37.1461C114.342 37.0356 114.529 37.0343 114.319 37.144ZM113.359 37.3042C113.172 37.3236 112.891 37.3255 112.715 37.3087C112.528 37.292 112.68 37.2729 113.031 37.2704C113.383 37.2679 113.535 37.2849 113.359 37.3042ZM96.9291 39.8563C93.5527 43.3177 91.2821 45.6074 91.2118 45.6079C91.1767 45.6082 91.2231 45.5357 91.3163 45.4448C91.4095 45.3629 93.0163 43.7275 94.8908 41.8105C96.7654 39.9025 98.3258 38.3396 98.3492 38.3395C98.3843 38.3392 97.7441 39.0204 96.9291 39.8563ZM91.1774 45.7255C91.1775 45.7435 91.0609 45.8346 90.9209 45.9348L90.6526 46.1081L90.8739 45.899C91.0836 45.7081 91.177 45.6533 91.1774 45.7255ZM90.7116 46.1889C90.7117 46.2069 90.6184 46.2798 90.5134 46.3437C90.3267 46.4623 90.3149 46.4534 90.4663 46.3079C90.6177 46.1625 90.7112 46.1167 90.7116 46.1889Z" fill="#312739"/>
<path id="ssymbol" d="M51.5002 49.5717C48.6458 46.0235 47.2104 42.8509 47.1939 40.0542C47.1774 37.2574 48.4615 34.7891 51.0461 32.649C53.7482 30.4117 56.9881 29.2797 60.7658 29.253C64.5435 29.2264 67.7374 30.3129 70.3477 32.5127C73.0754 34.6152 74.4481 37.1612 74.4658 40.1509C74.4834 43.1405 72.6724 46.3359 69.0327 49.7372C78.7472 55.4552 86.2181 61.0926 91.4454 66.6494C96.6722 72.1098 99.3072 78.5046 99.3505 85.8341C99.3932 93.067 96.0651 99.263 89.3663 104.422C82.6669 109.484 73.1195 112.059 60.7239 112.147C55.0574 112.187 49.3259 111.215 43.5294 109.23C37.8509 107.245 33.5272 104.768 30.5582 101.799L34.6105 98.2987C39.8248 101.637 45.4422 103.285 51.4629 103.243C57.4836 103.2 62.3751 101.864 66.1374 99.2333C70.0172 96.5054 71.9406 92.3448 71.9075 86.7513C71.8552 77.8788 67.7867 68.649 59.7022 59.0617L34.6112 93.9224L20.1711 104.435C29.073 92.5099 45.188 60.2251 51.5002 49.5717Z" fill="black" fill-opacity="0.83"/>
<g id="yncei">
<path id="Vector" d="M231.984 102.983L231.983 103.483L232.483 103.483L241.668 103.474L242.168 103.473L242.169 102.973L242.194 79.3358L242.194 78.8358L241.694 78.8363L232.509 78.8454L232.009 78.8459L232.009 79.3459L231.984 102.983ZM233.486 75.9407L233.486 75.9407L233.489 75.9428C234.511 76.712 235.728 77.0876 237.113 77.0862C238.51 77.0848 239.729 76.7075 240.742 75.9337L240.743 75.9335C241.77 75.1484 242.331 74.159 242.332 72.9801C242.333 71.8101 241.773 70.8323 240.749 70.0605C239.737 69.2786 238.519 68.8983 237.122 68.8996C235.735 68.901 234.517 69.2848 233.494 70.0667C232.467 70.8406 231.904 71.8199 231.903 72.9904C231.902 74.1693 232.461 75.1576 233.486 75.9407Z" fill="black" stroke="black"/>
<path id="Vector_2" d="M206.081 102.449L206.083 102.45C208.352 103.457 211.028 103.95 214.099 103.947C216.656 103.945 218.927 103.625 220.904 102.977L220.907 102.976C222.878 102.32 224.495 101.397 225.739 100.194C226.997 98.9793 227.819 97.5439 228.194 95.8954L228.329 95.2995L227.719 95.2856L219.285 95.0939L218.955 95.0864L218.818 95.3872C218.615 95.8319 218.312 96.2082 217.9 96.5194C217.481 96.8358 216.97 97.0829 216.357 97.254C215.744 97.4252 215.051 97.514 214.275 97.5147C213.153 97.5159 212.215 97.3261 211.445 96.9649C210.67 96.6015 210.09 96.1026 209.683 95.472C209.324 94.9075 209.119 94.2553 209.077 93.5031L227.803 93.4846L228.303 93.4841L228.303 92.9841L228.305 91.1067C228.307 89.1083 227.954 87.3171 227.232 85.744C226.515 84.1704 225.507 82.8433 224.208 81.7692C222.914 80.6984 221.383 79.896 219.625 79.3573L219.478 79.8354L219.625 79.3573C217.868 78.8192 215.94 78.5541 213.844 78.5562C210.881 78.5591 208.281 79.0848 206.057 80.1514C203.839 81.2056 202.104 82.6929 200.87 84.6156C199.633 86.5333 199.02 88.7643 199.018 91.2895C199.015 93.8827 199.614 96.1486 200.836 98.0661L200.838 98.0692C202.07 99.9726 203.825 101.431 206.081 102.449ZM218.719 88.1232L209.152 88.1326C209.251 87.6796 209.443 87.2653 209.728 86.8849L209.73 86.8818C210.15 86.3115 210.724 85.8543 211.47 85.5155L211.47 85.5155L211.475 85.5133C212.214 85.168 213.061 84.9892 214.025 84.9882C214.98 84.9873 215.801 85.1554 216.501 85.4782L216.501 85.4783L216.508 85.4817C217.225 85.7982 217.771 86.2319 218.163 86.7769C218.454 87.182 218.64 87.6285 218.719 88.1232Z" fill="black" stroke="black"/>
<path id="Vector_3" d="M194.533 99.1646C195.701 97.6206 196.329 95.8184 196.423 93.7758L196.447 93.2533L195.924 93.2539L187.34 93.2624L186.903 93.2628L186.844 93.6956C186.74 94.457 186.496 95.0834 186.127 95.5913C185.752 96.0952 185.276 96.4771 184.69 96.7404L184.686 96.7419C184.111 97.0051 183.433 97.1442 182.64 97.145C181.654 97.146 180.814 96.9247 180.102 96.497C179.395 96.0627 178.832 95.4202 178.419 94.5458C178.02 93.6645 177.81 92.561 177.812 91.2172C177.813 89.872 178.026 88.7797 178.425 87.9201C178.841 87.0437 179.404 86.4057 180.111 85.9803L180.111 85.9803L180.115 85.9779C180.828 85.5392 181.668 85.3117 182.652 85.3107C183.878 85.3095 184.819 85.6271 185.522 86.2209L185.522 86.2209L185.525 86.2233C186.243 86.82 186.691 87.65 186.85 88.7562L186.911 89.1845L187.344 89.184L195.928 89.1756L196.444 89.175L196.428 88.6589C196.365 86.6215 195.739 84.8309 194.544 83.307C193.368 81.7799 191.738 80.6145 189.68 79.7995C187.631 78.983 185.243 78.5835 182.528 78.5862C179.455 78.5892 176.78 79.1142 174.518 80.1806L174.517 80.1811C172.274 81.2452 170.525 82.7376 169.291 84.6618L169.29 84.6628C168.066 86.5797 167.46 88.7996 167.458 91.3044C167.455 93.7995 168.056 96.0175 169.275 97.9414L169.276 97.9424C170.494 99.855 172.234 101.339 174.475 102.398L174.476 102.399C176.736 103.461 179.422 103.981 182.52 103.977C185.272 103.975 187.675 103.565 189.716 102.733L189.717 102.733C191.765 101.892 193.379 100.706 194.533 99.1646ZM194.533 99.1646C194.532 99.1651 194.532 99.1655 194.532 99.166L194.133 98.8647M194.533 99.1646C194.533 99.1643 194.533 99.164 194.533 99.1638L194.133 98.8647M194.133 98.8647C193.042 100.323 191.507 101.458 189.528 102.27C187.561 103.072 185.225 103.475 182.52 103.477C179.478 103.48 176.867 102.97 174.69 101.946M194.133 98.8647C195.141 97.5329 195.726 95.9959 195.889 94.2539L195.923 94.2539L195.923 93.7539L195.424 93.7319C195.423 93.7394 195.423 93.7469 195.423 93.7544L187.339 93.7624C187.226 94.5935 186.956 95.3016 186.529 95.8868C186.103 96.4617 185.558 96.8983 184.894 97.1965C184.242 97.4946 183.491 97.6441 182.639 97.645C181.575 97.646 180.642 97.4059 179.841 96.9245L174.69 101.946M174.69 101.946C172.524 100.923 170.86 99.4982 169.698 97.6732C168.535 95.8379 167.955 93.7148 167.958 91.3039C167.96 88.8827 168.545 86.7585 169.711 84.9312C170.89 83.0937 172.563 81.6608 174.731 80.6328L174.69 101.946ZM195.428 88.676L187.345 88.684C187.171 87.4736 186.671 86.5251 185.845 85.8386C185.032 85.152 183.968 84.8094 182.653 84.8107C181.589 84.8118 180.655 85.0589 179.853 85.5521C179.052 86.0351 178.425 86.7539 177.973 87.7084L195.428 88.676ZM195.428 88.676C195.428 88.6814 195.429 88.6868 195.429 88.6922L195.929 88.6756L195.929 88.1756L195.901 88.1756C195.761 86.4452 195.177 84.9248 194.149 83.6144C193.037 82.1689 191.485 81.0522 189.495 80.2642L195.428 88.676Z" fill="black" stroke="black"/>
<path id="Vector_4" d="M144.714 103.569L145.214 103.568L145.215 103.068L145.229 89.5911C145.242 88.762 145.426 88.0863 145.757 87.5423C146.104 86.994 146.591 86.5694 147.235 86.2686L147.238 86.2675C147.899 85.9548 148.676 85.7907 149.579 85.7899C150.948 85.7885 151.947 86.1345 152.642 86.7651L152.645 86.7676C153.343 87.3917 153.709 88.2684 153.696 89.4668L153.696 89.4668L153.696 89.4715L153.681 103.06L153.681 103.56L154.181 103.559L163.366 103.55L163.866 103.55L163.866 103.05L163.882 87.986C163.897 86.1299 163.466 84.4856 162.572 83.0725C161.694 81.6562 160.459 80.5605 158.88 79.7854C157.308 78.9969 155.47 78.6131 153.381 78.6152C151.188 78.6174 149.268 79.0475 147.64 79.9267C146.437 80.5689 145.481 81.3992 144.786 82.4183L144.789 79.4315L144.79 78.9315L144.29 78.9319L135.555 78.9406L135.055 78.9411L135.055 79.4411L135.03 103.078L135.029 103.578L135.529 103.578L144.714 103.569Z" fill="black" stroke="black"/>
<path id="Vector_5" d="M103.343 111.536L103.525 111.046L105.56 105.581L105.72 105.152L106.161 105.272C107.037 105.511 107.815 105.646 108.498 105.684C109.179 105.721 109.728 105.628 110.163 105.433L110.174 105.428L110.174 105.428C110.589 105.254 110.918 104.942 111.16 104.451L111.162 104.447L111.162 104.447L111.416 103.945L101.275 79.6681L100.985 78.9754L101.737 78.9746L111.354 78.9651L111.72 78.9647L111.83 79.3143L116.805 95.1465L121.884 79.3025L121.995 78.9546L122.36 78.9542L132.034 78.9446L132.786 78.9439L132.494 79.6378L121.592 105.545C121.041 106.896 120.26 108.089 119.251 109.121C118.238 110.179 116.936 110.997 115.363 111.584M103.343 111.536L115.363 111.584C115.363 111.584 115.363 111.584 115.363 111.584M103.343 111.536L103.84 111.696C104.576 111.932 105.444 112.116 106.439 112.251M103.343 111.536L106.439 112.251M115.363 111.584C113.787 112.177 111.87 112.466 109.628 112.468C108.505 112.469 107.442 112.397 106.439 112.251M115.363 111.584L106.439 112.251" fill="black" stroke="black"/>
</g>
</g>
</svg>
